<svg xmlns="http://www.w3.org/2000/svg" viewBox="0 0 60.79 60.44"><defs><style>.cls-1{fill:#e4da7c;}.cls-2{fill:#231815;}</style></defs><title>アセット 14</title><g id="レイヤー_2" data-name="レイヤー 2"><g id="レイヤー_1-2" data-name="レイヤー 1"><path class="cls-1" d="M29.43,50.54v9.9H31v-9.9c-.27,0-.53,0-.8,0S29.69,50.55,29.43,50.54Z"/><path class="cls-1" d="M31,9.9V0H29.43V9.9c.27,0,.53,0,.8,0S30.75,9.89,31,9.9Z"/><path class="cls-1" d="M15.8,3.65l-1.38.8L19.37,13c.45-.28.9-.56,1.37-.81Z"/><path class="cls-1" d="M44.64,56.79,46,56l-4.95-8.57c-.45.28-.9.56-1.37.81Z"/><path class="cls-1" d="M4.45,14.42l-.8,1.38,8.56,4.94c.25-.47.52-.92.8-1.37Z"/><path class="cls-1" d="M56,46l.8-1.38L48.23,39.7c-.25.47-.52.92-.8,1.37Z"/><path class="cls-1" d="M9.9,29.43H0V31H9.9c0-.27,0-.53,0-.79S9.89,29.69,9.9,29.43Z"/><path class="cls-1" d="M50.83,31h10v-1.6h-10c0,.27,0,.53,0,.8S50.84,30.75,50.83,31Z"/><path class="cls-1" d="M57.12,15.72l-.8-1.38-8.62,5c.28.45.56.91.81,1.38Z"/><path class="cls-1" d="M3.65,44.64,4.45,46,13,41.07c-.28-.45-.56-.9-.8-1.37Z"/><path class="cls-1" d="M14.42,56l1.38.8,4.94-8.56c-.47-.25-.92-.52-1.37-.81Z"/><path class="cls-1" d="M46.29,4.3,44.9,3.5l-5,8.61c.47.25.93.53,1.38.81Z"/><path class="cls-2" d="M29.63,28.95c-.12,0-.13,0-.13-.08s.05-.12.19-.19a4.79,4.79,0,0,0,3.11-3.11.29.29,0,0,0,0-.25.25.25,0,0,0-.21-.12H30c-.19,0-.19-.06-.19-.15s0-.15.19-.15h2.58a.26.26,0,0,0,.25-.27V23.3a.26.26,0,0,0-.25-.27H30.76c-.35,0-.47-.14-.47-.51V19.39c0-.37.13-.51.47-.51h.5a.26.26,0,0,0,.25-.27V17.16a.26.26,0,0,0-.25-.27H29.8c-.1,0-.13,0-.13,0h0a.14.14,0,0,1,0-.06.14.14,0,0,1,0-.06s0,0,.13,0h1.46a.26.26,0,0,0,.25-.27v-.78c0-.21.05-.21.14-.21s.14,0,.14.21v.78a.26.26,0,0,0,.25.27h2.19a.26.26,0,0,0,.25-.27v-.72c0-.21.05-.21.14-.21s.14,0,.14.21v.72a.26.26,0,0,0,.25.27h1.51a.22.22,0,0,1,.13,0,.22.22,0,0,1,0,.13.22.22,0,0,1-.13,0H35a.26.26,0,0,0-.25.27V18.6a.26.26,0,0,0,.25.27h.5c.35,0,.47.14.47.51v3.13c0,.37-.13.51-.47.51H33.39a.26.26,0,0,0-.25.27v1.33a.26.26,0,0,0,.25.27h2.8c.19,0,.19.06.19.15s0,.15-.19.15H33.5a.25.25,0,0,0-.22.13.29.29,0,0,0,0,.27,6.23,6.23,0,0,0,3.15,2.71.31.31,0,0,1,.2.36.22.22,0,0,1-.19.08.68.68,0,0,1-.22,0,6.33,6.33,0,0,1-2.84-2.66.25.25,0,0,0-.22-.13h0a.26.26,0,0,0-.21.17,4.63,4.63,0,0,1-3.23,2.85ZM30.81,21a.26.26,0,0,0-.25.27v1a.52.52,0,0,0,.53.57h4.09a.52.52,0,0,0,.53-.57v-1a.26.26,0,0,0-.25-.27Zm.28-2a.52.52,0,0,0-.53.57v1a.26.26,0,0,0,.25.27h4.65a.26.26,0,0,0,.25-.27v-1a.52.52,0,0,0-.53-.57Zm1-2.17a.26.26,0,0,0-.25.27V18.6a.26.26,0,0,0,.25.27h2.19a.26.26,0,0,0,.25-.27V17.16a.26.26,0,0,0-.25-.27Zm-4.6,12A3.21,3.21,0,0,1,26,28.6c-.14-.05-.15-.1-.13-.19s0-.08.09-.08h0a3.39,3.39,0,0,0,1.12.19h.1a1.13,1.13,0,0,0,1.16-1.15,17.39,17.39,0,0,0,0-2.83.27.27,0,0,0-.17-.24l-.08,0a.25.25,0,0,0-.19.09,9.34,9.34,0,0,1-3.37,2.46h-.11c-.05,0-.1,0-.13-.13s.1-.11.19-.16a10.89,10.89,0,0,0,3.62-3,.29.29,0,0,0,.05-.25A5.52,5.52,0,0,0,27.72,22a.25.25,0,0,0-.19-.13h0a.25.25,0,0,0-.18.08,9.23,9.23,0,0,1-2.78,2.11.49.49,0,0,1-.16,0c-.05,0-.09,0-.12-.09s0-.06.07-.13a12,12,0,0,0,2.91-2.21.29.29,0,0,0,0-.35,5.57,5.57,0,0,0-.65-.82.25.25,0,0,0-.18-.08h-.08a16.2,16.2,0,0,1-2,.59H24.3c-.12,0-.13,0-.13-.08s0-.07.11-.12c.47-.16.93-.32,1.35-.48a.26.26,0,0,0,.15-.15.29.29,0,0,0,0-.22,9.45,9.45,0,0,0-.52-1.06c-.09-.19-.08-.29-.07-.3a.19.19,0,0,1,.1-.05.23.23,0,0,1,.13.09,6.81,6.81,0,0,1,.74,1.19.25.25,0,0,0,.23.15l.09,0a6.45,6.45,0,0,0,1.28-.69.29.29,0,0,0,.08-.37c-.15-.28-.3-.54-.44-.78,0-.09-.07-.21,0-.25a.17.17,0,0,1,.09,0c.06,0,.15.06.24.17a3,3,0,0,1,.35.65.26.26,0,0,0,.16.16h.07a.24.24,0,0,0,.15,0l.56-.42a.38.38,0,0,1,.21-.12.14.14,0,0,1,.08,0c.11.15.1.24,0,.38a10.65,10.65,0,0,1-2.13,1.41.27.27,0,0,0-.14.2.29.29,0,0,0,.07.24,6.12,6.12,0,0,1,1.72,3.75,24.39,24.39,0,0,1,0,3.27A1.2,1.2,0,0,1,27.44,28.88Zm-3-11.57c-.18,0-.18,0-.18-.09s0-.06.17-.09a15,15,0,0,0,3.77-1.35.54.54,0,0,1,.19,0,.1.1,0,0,1,.1.06.18.18,0,0,1,0,.1s-.06.11-.18.19A10.19,10.19,0,0,1,24.46,17.31Z"/><path class="cls-2" d="M28.47,44.28c-.18,0-.18-.05-.18-.14s0-.14.18-.14h3.41a.25.25,0,0,0,.24-.26V41.56a.25.25,0,0,0-.24-.26H28.58c-.18,0-.18-.05-.18-.14s0-.14.18-.14h.85a.25.25,0,0,0,.24-.26V38.53a.25.25,0,0,0-.24-.26h-1c-.18,0-.18-.05-.18-.14s0-.14.18-.14h1a.25.25,0,0,0,.24-.26V35.55a.25.25,0,0,0-.24-.26h-.8c-.18,0-.18-.05-.18-.14s0-.14.18-.14h3.25a.25.25,0,0,0,.24-.26V33a.25.25,0,0,0-.24-.26H29.16c-.18,0-.18-.05-.18-.14s0-.14.18-.14a45.33,45.33,0,0,0,6.22-.4h.08c.16,0,.17.06.18.13a.29.29,0,0,1,0,.19.34.34,0,0,1-.23.09c-1,.11-2,.19-2.76.23a.25.25,0,0,0-.23.26v1.78a.25.25,0,0,0,.24.26h3.25c.18,0,.18.05.18.14s0,.14-.18.14h-.8a.25.25,0,0,0-.24.26v2.18a.25.25,0,0,0,.24.26h1c.18,0,.18.05.18.14s0,.14-.18.14h-1a.25.25,0,0,0-.24.26v2.23a.25.25,0,0,0,.24.26h.8c.18,0,.18.05.18.14s0,.14-.18.14H32.63a.25.25,0,0,0-.24.26v2.18a.25.25,0,0,0,.24.26H36c.18,0,.18.05.18.14s0,.14-.18.14Zm4.16-6a.25.25,0,0,0-.24.26v2.23a.25.25,0,0,0,.24.26h1.71a.25.25,0,0,0,.24-.26V38.53a.25.25,0,0,0-.24-.26Zm-2.45,0a.25.25,0,0,0-.24.26v2.23a.25.25,0,0,0,.24.26h1.71a.25.25,0,0,0,.24-.26V38.53a.25.25,0,0,0-.24-.26Zm2.45-3a.25.25,0,0,0-.24.26v2.18a.25.25,0,0,0,.24.26h1.71a.25.25,0,0,0,.24-.26V35.55a.25.25,0,0,0-.24-.26Zm-2.45,0a.25.25,0,0,0-.24.26v2.18a.25.25,0,0,0,.24.26h1.71a.25.25,0,0,0,.24-.26V35.55a.25.25,0,0,0-.24-.26Zm-5,8a.56.56,0,0,1-.42-.21.64.64,0,0,1-.2-.45V33.2a.64.64,0,0,1,.2-.45.56.56,0,0,1,.42-.21h1.44a.57.57,0,0,1,.42.21.65.65,0,0,1,.2.45v9.45a.64.64,0,0,1-.2.45.57.57,0,0,1-.42.21Zm-.11-3.78a.25.25,0,0,0-.24.26v2.69a.49.49,0,0,0,.51.55H26.5a.49.49,0,0,0,.51-.55V39.79a.25.25,0,0,0-.24-.26Zm0-3.38a.25.25,0,0,0-.24.26V39.1a.25.25,0,0,0,.24.26h1.65A.25.25,0,0,0,27,39.1V36.41a.25.25,0,0,0-.24-.26Zm.27-3.32a.49.49,0,0,0-.51.55v2.35a.25.25,0,0,0,.24.26h1.65a.25.25,0,0,0,.24-.26V33.37a.5.5,0,0,0-.51-.55Z"/></g></g></svg>