<svg xmlns="http://www.w3.org/2000/svg" viewBox="0 0 40.01 97.86"><defs><style>.cls-1{fill:#231815;}</style></defs><title>アセット 13</title><g id="レイヤー_2" data-name="レイヤー 2"><g id="レイヤー_1-2" data-name="レイヤー 1"><path class="cls-1" d="M17,42c-.38,0-.39-.09-.42-.25s.16-.39.58-.58a14.92,14.92,0,0,0,9.68-9.68.9.9,0,0,0-.1-.78.77.77,0,0,0-.65-.36H18.25c-.6,0-.6-.17-.6-.46s0-.46.6-.46h8a.82.82,0,0,0,.79-.85V24.46a.82.82,0,0,0-.79-.85H20.52C19.44,23.61,19,23.18,19,22V12.27c0-1.16.4-1.59,1.48-1.59h1.57a.82.82,0,0,0,.79-.85V5.34a.82.82,0,0,0-.79-.85H17.55c-.32,0-.4-.08-.4-.08h0a.44.44,0,0,1,0-.2.43.43,0,0,1,0-.2s.08-.08.4-.08h4.54a.82.82,0,0,0,.79-.85V.65c0-.65.16-.65.43-.65s.43,0,.43.65V3.09a.82.82,0,0,0,.79.85h6.81a.82.82,0,0,0,.79-.85V.84c0-.65.16-.65.43-.65s.43,0,.43.65V3.09a.82.82,0,0,0,.79.85h4.71a.68.68,0,0,1,.4.08.43.43,0,0,1,0,.2.43.43,0,0,1,0,.2.68.68,0,0,1-.4.08H33.78a.82.82,0,0,0-.79.85v4.5a.82.82,0,0,0,.79.85h1.57c1.08,0,1.48.43,1.48,1.59V22c0,1.16-.4,1.59-1.48,1.59H28.72a.82.82,0,0,0-.79.85v4.13a.82.82,0,0,0,.79.85h8.73c.6,0,.6.17.6.46s0,.46-.6.46H29.07a.78.78,0,0,0-.68.41.91.91,0,0,0,0,.84c1.71,3.41,5,6.25,9.81,8.44a1,1,0,0,1,.62,1.11.68.68,0,0,1-.58.26,2.12,2.12,0,0,1-.7-.14A19.68,19.68,0,0,1,28.69,33a.78.78,0,0,0-.67-.4H28a.8.8,0,0,0-.66.53c-1.66,4.39-4.95,7.29-10.07,8.86Zm3.69-24.59a.82.82,0,0,0-.79.85v3a1.6,1.6,0,0,0,1.66,1.79H34.31A1.6,1.6,0,0,0,36,21.27v-3a.82.82,0,0,0-.79-.85Zm.87-6.19A1.6,1.6,0,0,0,19.9,13v3a.82.82,0,0,0,.79.85H35.18A.82.82,0,0,0,36,16V13a1.62,1.62,0,0,0-1.66-1.79Zm3-6.75a.82.82,0,0,0-.79.85v4.5a.82.82,0,0,0,.79.85h6.81a.82.82,0,0,0,.79-.85V5.34a.82.82,0,0,0-.79-.85ZM10.21,41.8a10,10,0,0,1-4.37-.86c-.45-.17-.46-.3-.42-.58s.05-.25.28-.25h.15a10.56,10.56,0,0,0,3.49.58h.32c2.06,0,3.34-1.27,3.61-3.57a54.1,54.1,0,0,0,0-8.79.85.85,0,0,0-.53-.74.75.75,0,0,0-.26,0,.77.77,0,0,0-.58.27A29.07,29.07,0,0,1,1.43,35.46a1.39,1.39,0,0,1-.33,0c-.16,0-.31,0-.41-.4,0-.15.31-.35.6-.49A33.89,33.89,0,0,0,12.56,25.4a.9.9,0,0,0,.17-.78,17.19,17.19,0,0,0-1.66-4.15.79.79,0,0,0-.59-.41H10.4a.77.77,0,0,0-.57.26,28.71,28.71,0,0,1-8.66,6.57,1.53,1.53,0,0,1-.5.11c-.17,0-.27,0-.38-.28s-.07-.2.22-.39a37.29,37.29,0,0,0,9-6.87.9.9,0,0,0,.11-1.09,17.34,17.34,0,0,0-2-2.57.77.77,0,0,0-.56-.25.75.75,0,0,0-.25,0A50.4,50.4,0,0,1,.65,17.44H.43C0,17.45,0,17.36,0,17.2s0-.23.34-.37c1.46-.48,2.89-1,4.21-1.51A.82.82,0,0,0,5,14.86a.91.91,0,0,0,0-.67A29.4,29.4,0,0,0,3.4,10.9c-.28-.6-.26-.9-.2-.94a.58.58,0,0,1,.3-.16.72.72,0,0,1,.41.27A21.18,21.18,0,0,1,6.2,13.78a.79.79,0,0,0,.71.47.75.75,0,0,0,.27-.05,20.08,20.08,0,0,0,4-2.14.89.89,0,0,0,.26-1.14c-.46-.86-.92-1.67-1.38-2.42-.1-.27-.21-.66-.05-.79a.54.54,0,0,1,.29-.1c.2,0,.46.19.73.54a9.23,9.23,0,0,1,1.09,2,.82.82,0,0,0,.51.48.75.75,0,0,0,.67-.12L15,9.22a1.17,1.17,0,0,1,.65-.37A.42.42,0,0,1,16,9c.36.47.32.75-.14,1.17a33.14,33.14,0,0,1-6.63,4.38.85.85,0,0,0-.44.62.89.89,0,0,0,.22.75,19.05,19.05,0,0,1,5.36,11.66,75.89,75.89,0,0,1,0,10.18C14.22,40.4,12.91,41.69,10.21,41.8ZM.93,5.8c-.56,0-.56-.15-.56-.27s0-.2.54-.28A46.54,46.54,0,0,0,12.65,1a1.69,1.69,0,0,1,.59-.13.3.3,0,0,1,.32.17.55.55,0,0,1,.12.32c0,.12-.18.33-.55.58A31.7,31.7,0,0,1,.93,5.8Z"/><path class="cls-1" d="M14.63,97.86c-.6,0-.6-.17-.6-.46s0-.46.6-.46H25.8a.82.82,0,0,0,.79-.85V89a.82.82,0,0,0-.79-.85H15c-.6,0-.6-.17-.6-.46s0-.46.6-.46h2.79a.82.82,0,0,0,.79-.85V79a.82.82,0,0,0-.79-.85H14.63c-.6,0-.6-.17-.6-.46s0-.46.6-.46h3.14a.82.82,0,0,0,.79-.85V69.28a.82.82,0,0,0-.79-.85H15.15c-.6,0-.6-.17-.6-.46s0-.46.6-.46H25.8a.82.82,0,0,0,.79-.85V61a.82.82,0,0,0-.79-.85H16.9c-.6,0-.6-.17-.6-.46s0-.46.6-.46a148.34,148.34,0,0,0,20.34-1.32l.26,0c.54,0,.56.19.59.42a1,1,0,0,1-.1.61,1.12,1.12,0,0,1-.77.3c-3.38.38-6.42.63-9,.75a.83.83,0,0,0-.76.85v5.81a.82.82,0,0,0,.79.85H38.89c.6,0,.6.17.6.46s0,.46-.6.46H36.27a.82.82,0,0,0-.79.85V76.4a.82.82,0,0,0,.79.85h3.14c.6,0,.6.17.6.46s0,.46-.6.46H36.27a.82.82,0,0,0-.79.85v7.31a.82.82,0,0,0,.79.85h2.62c.6,0,.6.17.6.46s0,.46-.6.46H28.24a.82.82,0,0,0-.79.85v7.13a.82.82,0,0,0,.79.85h11c.6,0,.6.17.6.46s0,.46-.6.46ZM28.24,78.18a.82.82,0,0,0-.79.85v7.31a.82.82,0,0,0,.79.85h5.58a.82.82,0,0,0,.79-.85V79a.82.82,0,0,0-.79-.85Zm-8,0a.82.82,0,0,0-.79.85v7.31a.82.82,0,0,0,.79.85H25.8a.82.82,0,0,0,.79-.85V79a.82.82,0,0,0-.79-.85Zm8-9.75a.82.82,0,0,0-.79.85V76.4a.82.82,0,0,0,.79.85h5.58a.82.82,0,0,0,.79-.85V69.28a.82.82,0,0,0-.79-.85Zm-8,0a.82.82,0,0,0-.79.85V76.4a.82.82,0,0,0,.79.85H25.8a.82.82,0,0,0,.79-.85V69.28a.82.82,0,0,0-.79-.85ZM4,94.68A1.84,1.84,0,0,1,2.63,94,2.09,2.09,0,0,1,2,92.53V61.59a2.1,2.1,0,0,1,.64-1.46A1.84,1.84,0,0,1,4,59.44H8.7a1.85,1.85,0,0,1,1.36.69,2.11,2.11,0,0,1,.64,1.46V92.53A2.1,2.1,0,0,1,10.06,94a1.85,1.85,0,0,1-1.36.69ZM3.64,82.3a.82.82,0,0,0-.79.85V92a1.6,1.6,0,0,0,1.66,1.79H8.17A1.6,1.6,0,0,0,9.84,92V83.15A.82.82,0,0,0,9,82.3Zm0-11.06a.82.82,0,0,0-.79.85V80.9a.82.82,0,0,0,.79.85H9a.82.82,0,0,0,.79-.85V72.09A.82.82,0,0,0,9,71.24Zm.87-10.87a1.6,1.6,0,0,0-1.66,1.79v7.69a.82.82,0,0,0,.79.85H9a.82.82,0,0,0,.79-.85V62.15a1.62,1.62,0,0,0-1.66-1.79Z"/></g></g></svg>