<svg xmlns="http://www.w3.org/2000/svg" viewBox="0 0 775.27 235.16"><defs><style>.cls-1{fill:#231815;}.cls-2{fill:#070102;}.cls-3{fill:#e2a379;}.cls-4{fill:none;}</style></defs><title>logo</title><g id="レイヤー_2" data-name="レイヤー 2"><g id="レイヤー_1-2" data-name="レイヤー 1"><path class="cls-1" d="M82.91,128.44q-4.41,5.08-8.82,9.65c1.84,4.12,3.68,8,5.51,11.57-1.53,6.93-3.06,13.06-4.59,18.51-4.72,3.74-9.43,7.4-14.15,11.4l-36.57,3.57c1.22-4,2.45-7.84,3.68-11.53,4.75-25,9.5-47.42,14.24-75.81q0-6.47,0-13.18l36.11,3.52c2.63,7.8,5.27,15.29,7.9,22.33Q84.56,119.2,82.91,128.44ZM62.69,147.82q-1.38-1.46-2.76-3-5.51-.84-11-1.89l-1.19,1.13c-1.47,7.16-2.94,14-4.41,20.66l1,1.92q5.38.35,10.75.59l3.68-2L62,161.53q1.06-4.41,2.11-9.16Q63.38,150.15,62.69,147.82Zm7.08-38.53L67,105.53q-5.51-.79-11-1.68l-1.2,1.45c-1.13,6.93-2.27,13.46-3.4,19.67l.64,1.61q5.65,1.15,11.3,2.09,1.84-1.17,3.68-2.38,1.61-2.37,3.22-4.85.46-3,.92-6.21Q70.46,112.31,69.77,109.29Z"/><path class="cls-1" d="M133.63,103.22v65a40.53,40.53,0,0,0,1.56,4.09L117.73,174a49,49,0,0,0,3-4.73v-5.75l-.64-.78q-8.91.47-17.83.67l-1.29.9q-1.84,3.51-3.68,6.5-.6,2.93-1.19,5.28L78,177.9c1.93-2.07,3.86-4.2,5.79-6.42,9.25-15,18.5-37.21,27.75-70V89.38l25.18,2.46Q135.19,97.69,133.63,103.22ZM107.9,150.38l.64,1.12q5.51,0,11-.07l1.19-1.1V115q.23-2.42.46-4.94A365.89,365.89,0,0,1,107.9,150.38Z"/><path class="cls-1" d="M188.76,126.69v34.77c1,2,2,3.74,2.94,5.36l-16.26,1.59V141.63l-2.3.21c-2.85,2.7-5.7,5.32-8.55,7.81l-1.38,1.82a124.22,124.22,0,0,1-4.78,14.37v4.22L141,171.76a43.76,43.76,0,0,0,3.68-4.54c4.75-11.23,9.5-32,14.24-60.08q0-6.29,0-13.15l17.46,1.7q-1.84,6.15-3.68,12c-1.47,8.1-2.94,15.63-4.41,22.5l-.92,2.49c8.21-8.7,16.42-18.07,24.63-27q1.38-4,2.76-8.18l13.32,1.3q.92,3,1.84,5.83C202.85,111.64,195.8,119.25,188.76,126.69Z"/><path class="cls-1" d="M264.56,110.28c-3.77,10.63-7.54,23-11.3,35.1q0,2.31,0,4.61c-5.36,4.36-10.72,8.59-16.08,12.39l-23.89,2.33c-2.91-2.46-5.82-5-8.73-7.84q1.38-2.37,2.76-4.94c3.77-11.83,7.54-26.79,11.3-42.82V99.82l17.46,1.7c-1.23,2.6-2.45,5.25-3.68,7.93-3.83,14.63-7.66,29.08-11.49,41.11q.69,1.29,1.38,2.54l2.76,1.15,7.35-1,3.68-2.07q1.61-1.6,3.22-3.24c3.83-12.19,7.66-25.6,11.49-38q0-3.45,0-6.95l17.46,1.7C267,106.43,265.79,108.31,264.56,110.28Z"/><path class="cls-1" d="M309.58,113.8q-6.2-.17-12.41-.27-1.84.51-3.68,1.09-1.29.81-2.57,1.68-.64,1.6-1.29,3.31l2.2,2.17c4.23.86,8.45,1.68,12.68,2.5,2,1.92,4,3.91,6,6-1.53,4.23-3.06,9-4.59,14.11-5.05,4.09-10.11,8.43-15.16,12.77L265,159.67q0-7,0-13.71,4.14.88,8.27,1.81,6.43-.82,12.87-1.59l3.68-2.12q1.47-1.51,2.94-3,.92-3.09,1.84-6l-2.21-2.43-12.68-2.42c-2-2.18-4-4.33-6-6.52,1.23-3.55,2.45-6.92,3.68-10.05A82.58,82.58,0,0,1,292.67,107l24.26,2.37v6Q313.26,114.6,309.58,113.8Z"/><path class="cls-1" d="M378.49,117.22c-3.77,3.24-7.53,8.89-11.3,18.23v3.87a128.1,128.1,0,0,0-16.08,12l-23.89,2.33q-4.37-5.91-8.73-11,1.38-2.65,2.76-5.11c3.77-11.47,7.53-19.72,11.3-24.18q0-1.32,0-2.32l17.46,1.7a21.79,21.79,0,0,0-3.68,1.6c-3.83,3.83-7.66,11.45-11.49,22.77q.69,1.29,1.38,2.64l2.76,1.42q3.68-.25,7.35-.47,1.84-.9,3.68-1.75,1.61-1.4,3.22-2.7c3.83-10.47,7.66-17,11.49-20.34v-1.73l17.46,1.7C380.95,116.19,379.72,116.67,378.49,117.22Z"/><path class="cls-1" d="M409.73,121.27c-4.75,5.63-9.5,10.81-14.24,21v4.63L378,148.64q1.84-3.21,3.68-6c4.75-12.27,9.5-18.73,14.24-23.37v-2.21l17.46,1.7C412.18,119.71,411,120.51,409.73,121.27Z"/><path class="cls-1" d="M0,0S87.53,27.67,137.77,38.55c3.8,1,7.69,2,11.63,3.16,16.84,14.52,38.19,48.07,58,28.25,29-27.45,73.21-35.08,96.15-.37,3.92,3.79,7.82,5.41,11.62,7.36l87.45,18.93L314,81.49c-3.73-1.78-7.61-3.22-11.3-6.94-14.5-16.8-37.38-35.1-58.73-19.85-18.3,10.68-25.93,33.55-50.33,30.5-21.35-3.05-30.5-21.35-47.42-30.38-4.05-.9-8-1.69-11.94-2.52L45.74,37.92Z"/><path class="cls-2" d="M573.24,198a1.74,1.74,0,0,1-.48.1Z"/><path class="cls-2" d="M770,86.61l1.62-.49c.17.9-.59,1.66-1.25,2.3a19.35,19.35,0,0,0-4.91,7.77c-1.23,3.66-5,5.73-8.59,7.23-5.81,2.45-12.15,4.39-18.35,3.22-5.52-1.05-9.33-5.57-13.26-11.07a1.12,1.12,0,0,0-1.07-.47c-4.86.74-10.55,2.39-14.38,5a1.1,1.1,0,0,0,0,1.87c5.63,3.29,7.5,11.72,4.35,17.63-3.27,6.14-10.49,9.39-17.47,9.43a1.09,1.09,0,0,0-1.09.92,44,44,0,0,1-1.77,7.48,1.09,1.09,0,0,0,.53,1.33c2.65,1.38,7.36,4.73,8.21,5a178.76,178.76,0,0,1,34.66,13.91c0,.14-.05.28-.07.42a14,14,0,0,1,7.8,7.61,34.63,34.63,0,0,1,2.43,11.2A1.11,1.11,0,0,1,746,178c-13.39-3.85-26.5-8.69-39.89-12.54-.59-.17-1.49,1.16-1.65,1.75-1.73,6.74.9,13.93,3.51,20.48q5.67,14.28,11.35,28.55c2.42,6.1-1.68,12.52-6,17.68a1.11,1.11,0,0,1-1.83-.19L692.33,198c-1-1.78-3-3.85-4.59-2.67-11.68,8.47-27.94,11.73-40.81,5.2-11.21-5.68-17.64-23-14.07-35.48a1.1,1.1,0,0,0-1.75-1.17c-14.66,11.51-33.3,16.57-52.07,15.44-.43,0-.86,1.33-1.07,1.71-1.91,3.59-3.79,6.05-5.7,9.64a8.26,8.26,0,0,0-1.38,4.62,3.33,3.33,0,0,0,.81,1.78,1.1,1.1,0,0,1-.4,1.76,14.88,14.88,0,0,0-6.65,5.74,1.1,1.1,0,0,0,1.36,1.6l.18-.08a1.11,1.11,0,0,1,.92,2c-4.55,2.32-10.46,2.32-15.78,2.48a110.16,110.16,0,0,0-41.81,9.59c-3.25,1.46-6.6,3.11-10.16,3-3.3-.1-6.79-2.38-7.24-5.54a1.14,1.14,0,0,1,.52-1.13,337.23,337.23,0,0,1,31.57-17.42,1.1,1.1,0,0,0-.14-2l-11-3.47a1.1,1.1,0,0,0-1.07.24,23.31,23.31,0,0,1-7.72,4.59,19.35,19.35,0,0,0-8.66,7.21,23,23,0,0,1-11.42,9c-5.18,2-10.78,2.65-16.32,3.2a1.11,1.11,0,0,1-1.16-.72,36.43,36.43,0,0,1-2-9.78,1.09,1.09,0,0,1,.56-1c2.73-1.47,11.9-9.39,14.36-17.77a1.11,1.11,0,0,0-1.29-1.38c-7.5,1.45-8,.56-14.75,5.17a6.83,6.83,0,0,1-6.8.26,14,14,0,0,1-4.44-5.31,1.12,1.12,0,0,1,.27-1.43c7.8-6.24,8.9-7.35,17.41-11.57a1.12,1.12,0,0,0,.28-1.8c-1.59-1.6-2.34-4-2.93-6.3q-1-3.93-2.09-7.87a1.1,1.1,0,0,0-.63-.73c-11.16-4.79-18.76-18.58-14.22-29.84,1.25-3.1-.51-6.5-1.57-9.66a23.88,23.88,0,0,1,8.4-26.2c4.87-3.52,4-13.25,9.11-15a1.07,1.07,0,0,0,.71-1.36l-1.67-4.78a1.11,1.11,0,0,1,1.24-1.45,87.42,87.42,0,0,0,32-.47c15.42-3.12,46.42.64,51.24.5.77,0,6.46-1.75,7.19-1.86,6.12-1,5.87-3.18,12.36-3.58,7.27-.45,15.1,1,20.31,6.08,3.59,3.5,4.29,9.37,8.83,11.5,7.35,3.45,16.94-3.5,22.7-9.22,3.52-3.49,7.93-9.63,11.56-13.48l-.13,0a26.91,26.91,0,0,1-.15-5.48,1.11,1.11,0,0,1,2.17-.15A43.56,43.56,0,0,1,635.88,58c1.64,9.35.26,21.68-4.77,30.52A1.12,1.12,0,0,0,632.7,90a38.28,38.28,0,0,0,8.73-7.84,1.11,1.11,0,0,0,.08-1.27c-.18-.31-.37-.61-.52-.91a4.19,4.19,0,0,1-.32-3,1.12,1.12,0,0,1,2-.21c2.6,4.34,2.07,10.21-.47,14.66-2.75,4.81-7.42,8.22-12.25,10.92a72.78,72.78,0,0,1-8.69,4.11,1.11,1.11,0,0,0,.32,2.13,89.6,89.6,0,0,0,15.73-.26h0l.9-.29a48.85,48.85,0,0,1,5.87-1.59,37.44,37.44,0,0,1,6.13-.51,66.85,66.85,0,0,1,12.15.93q1.6.29,3.19.7a1.1,1.1,0,0,0,.9-.17c5.65-3.94,13.86-4.76,20.77-4.14a1.08,1.08,0,0,0,1-.5A39.49,39.49,0,0,1,716.8,84.91c2.69-.3,5.72-.45,7.53-2.46C729,77.28,737,77.35,744,78.17s14.65,1.77,20.25-2.38a6.54,6.54,0,0,1,9.63,3.05C774.86,81.89,772.88,85.43,770,86.61Z"/><g id="シェイプ_16" data-name="シェイプ 16"><path class="cls-3" d="M690.79,141.34q-1.85-1-3.67-2.12c-2.68,2.67-3.48,6.66-5.51,9.85-1.8,2.84-5.75,5-8.5,3.54a2.66,2.66,0,0,1-.36-.21q-.55,1.06-1.14,2.1l-.17.3.22-.29a3.18,3.18,0,0,1,.92.34,7.05,7.05,0,0,0,4.76.36,27.36,27.36,0,0,0,16.76-10.52,26,26,0,0,0,8.84,4.3,1.56,1.56,0,0,1,.77,2.13,4.49,4.49,0,0,1-1.82,1.77L696,156.76c-3.94,2.59-8.26,5.27-13,4.92a11,11,0,0,1-8.43-5.18l-5.9,1.43c-.55.83-1.08,1.62-1.59,2.34a8.27,8.27,0,0,1,7.11-.76c1.59.62,2.95,1.7,4.47,2.45,4.24,2.11,9.43,1.47,13.72-.54s7.86-5.25,11.36-8.45c5.27-4.81,13.93,5.8,20.11,2.23a156.6,156.6,0,0,1-24.25-9.28,7.31,7.31,0,0,0-2.19.42C696.83,145.84,692.61,143.31,690.79,141.34Zm-8.52,10q1.48-2.87,3.15-5.64a6.71,6.71,0,0,1,2.61-2.85c1.19-.56,2.9-.2,3.32,1A13.54,13.54,0,0,1,682.28,151.33Z"/><path class="cls-3" d="M775,77.78c-.59-1.8-1.74-5.82-3.92-5-2.67,1-9.9,3.58-12.58,4.17-6.81,1.49-8.49,1.64-15.42.83s-15.07-.5-19.75,4.67c-1.81,2-4.84,2.16-7.53,2.46a39.47,39.47,0,0,0-28.91,18.41c-7.2-.75-16,0-21.84,4.37-.43.31-.83.65-1.22,1a36.22,36.22,0,0,1,3.57,2.53c-.26-1.32-1.87-1.43-.2-2.08l1.11-.42c9.11-3.35,15.45-4.46,17.12-3.08a5.56,5.56,0,0,1-.51,3.23c-.58.94-.46,3.36-1.4,4.69-1.86-.56-3.55.77-5.35,1.72a8,8,0,0,1-1.74.73,3.94,3.94,0,0,0-1.11.48c.17.17.33.34.49.52s.37.43.55.66l2.88-.94,6-2c-2.91,5.49,8.28,9.83,7.29,16-.36,2.18-2.14,6.27-2,9a1.75,1.75,0,0,0,.31,1.67q4.33,2.43,8.81,4.59a17.93,17.93,0,0,1,6.28,1.22q12.11,4,23.8,9.16a7.11,7.11,0,0,1,3.42,2.44,8.67,8.67,0,0,1,.82,3.73A22.09,22.09,0,0,0,737.81,173c1.39-.4.85-2.47.18-3.74a18.18,18.18,0,0,1-2-10.17,27.25,27.25,0,0,1,7.62,13,3,3,0,0,1-.07,2.25c-.73,1.25-2.59,1-4,.51-9.73-3.24-27.77-11.44-34.52-11.27a5.14,5.14,0,0,0-4.31,4.46c.1,7.61-7.26,13.32-14.56,15.48-6.26,1.85-13.38,2-19-1.43s-8.81-11-5.94-16.81l-4.85,7.16a25.29,25.29,0,0,0,44.23,2.85,169.88,169.88,0,0,0,10.53,27.37,14,14,0,0,1-5.42,17.67l-15-28.18a1.67,1.67,0,0,0-2.51-.53c-9.79,7.77-24.72,15.46-35.18,9.56-12.62-7.12-18.12-16.05-18.9-38.81A1.62,1.62,0,0,0,631.9,161c-3.41,1.5-10,4.3-13.85,6.13-6.34,3-12.71,6-19.45,7.92a65,65,0,0,1-16.69,2.51c-1.75,0-3.68-.07-5-1.27a6.63,6.63,0,0,1-1.6-3.29,39.81,39.81,0,0,1-.82-15.52L571,166.37c2.33,2.61,2.07,12.81.56,13.67a36.56,36.56,0,0,1-26,3.85c-2.91-.67-7.3-.71-7.45,2.27-.23,4.49-10.61,1.6-10.5,6.1a54.86,54.86,0,0,1,36.77,7,8.69,8.69,0,0,1-15.75,4.92,19.39,19.39,0,0,0-14.05-7.94l2.59-3.47q-3.49,1.5-7,3.08c-1.49.68-3,1.37-4.45,2.07a352.11,352.11,0,0,0-34.28,18.43,1.85,1.85,0,0,0-.81,2.17c1,2.74,5.83,5,8.87,5.11,3.56.11,8.12-2,11.38-3.5,13.13-5.9,35.87-9,50.25-9.44,2.35-.07,6.2-.41,7.38-2.19,2.32-3.5,4.88-7.87,4.69-10.5-.5-1.69-1.71-1.36-1.87-2.81-.18-1.63,1.17-3.69,1.94-5.12,1.75-3.3,3.11-4.52,4.77-7.57a2.53,2.53,0,0,1,2.35-1.33c19.85,1,34.82-2.78,49.71-16a.67.67,0,0,1,1,.51c-5.78,28.32,11,35,20.31,38.31,13.57,4.9,24.67.45,36.35-8,1.63-1.18,2.64.31,3.59,2.1,6.3,11.77,12.7,24.45,19.07,36.32a2.12,2.12,0,0,0,3,.31c4.09-5.27,9.2-11.92,6.84-17.89-3.79-9.51-15.07-39.73-15.83-42.08a9.52,9.52,0,0,1,.25-6.92,2.3,2.3,0,0,1,2.74-1.24c12.73,3.71,24.74,8.17,37.51,12a2.15,2.15,0,0,0,2.74-2.16c-.09-3.71,1.93-6.23-2.25-12.13-7.5-10.58-31.22-17.84-43.33-21.33-.95-.27-5.19-3.76-7.5-4.67.93-2.32,1.11-5.23,1.6-7.41a2.24,2.24,0,0,1,2.08-1.76c6.46-.3,13.27-3.35,16.41-9.24,3.25-6.09,3.17-15-2.75-18.08-.46-.24-.73-1.5-.33-1.83a13.54,13.54,0,0,1,12.17-2.75c3.75,1.58,7,9.81,14.92,10.58,6.27.61,13.28-1.21,19.08-3.67,3.56-1.5,8.19-4,9.42-7.67,1-2.94,3.6-6.45,5.67-8.75,3.75-4.17-1-1.91-1.5-1.75A6.87,6.87,0,0,0,775,77.78ZM535.14,209.49a63.63,63.63,0,0,1-6.51,1.91c-4.12.67-8.78-.59-12.24,1.77-1.52,1-2.63,2.71-4.36,3.37-1.47.56-3.13.3-4.65.66-2.22.53-3.91,2.3-5.94,3.36-2.28,1.18-5.88,1-6.24-2a4,4,0,0,1,2.23-4l25.18-13c4.35-2.25,9.19-4.58,14-3.44,3.31.78,6,3.13,8.53,5.38l6.51,5.79C546.13,208.68,540.47,208,535.14,209.49Zm6.41-20.31c-.82-.1-1.61-.89-1.38-1.68a1.84,1.84,0,0,1,.73-.9,6.25,6.25,0,0,1,6-.74c-.45,1.31-1.8,2.05-3,2.67A4.37,4.37,0,0,1,541.56,189.19Zm26.94,4a5.5,5.5,0,0,1-1.88,2.41,5.42,5.42,0,0,1-3.92.16,69.57,69.57,0,0,1-17-6.19c.24-1.71,2-2.85,3.71-3.08a20.29,20.29,0,0,1,5.13.44,19.42,19.42,0,0,0,9.82-1.33c3.13-1.3,6-3.43,9.35-3.79Q571.34,187.62,568.5,193.2Zm148.33,27.3a3.78,3.78,0,0,1-.51,2.28l-4.23,9.1-3.49-6a6.23,6.23,0,0,1-1.07-2.78c-.07-1.55,1-2.89,2-4.06l4.53-5.25A20.41,20.41,0,0,1,716.83,220.5ZM766.92,87c.37,0-12.75,3.67-19.8,5.06-3.09.61-6.41,1.14-9.29-.14-1.86-.83-4-2.37-5.66-1.24a16.75,16.75,0,0,0,12.35,4.36,33.14,33.14,0,0,0,6.8-1.44l13.4-3.85a3.24,3.24,0,0,1-1,3.49A9.54,9.54,0,0,1,760.3,95l-10.76,3.75c4.69,1.1,9.46-1.13,13.76-3.3a12.88,12.88,0,0,1-10.68,5.65,1.75,1.75,0,0,1-.33,1.53,5.52,5.52,0,0,1-3.25,1.61l-.52.08c-3.7.45-7.45.89-11.11.12a15.2,15.2,0,0,1-8.57-6.32c-2.54-4.32-6.43-6.95-20.52-.57a19.8,19.8,0,0,0-9.87,9.28c-1.93,4.15-.56,10.17,3.83,11.49,2,.6,3.72-1.78,3.65-3.85s-1.15-4-1.46-6,.7-4.64,2.76-4.77c5.52,3.88,6.56,12.68,2.29,17.9s-12.84,6.06-18.21,2-6.91-12.31-3.63-18.21c1.58-2.83,4-5.06,6.47-7.21,6.53-5.76,14.06-11.74,22.76-11.4,2.92.11,6.61.58,8-2,1.88-3.39,6-5,9.83-5.21s7.7.7,11.56,1.09a43.09,43.09,0,0,0,23.61-4.37A9.75,9.75,0,0,1,766.92,87Z"/><path class="cls-3" d="M602.61,97.29a2.79,2.79,0,0,1,2.66-1.19,53.49,53.49,0,0,1-2-10.31c3.9,2.31,2.2,9.41,6.13,11.67A8.29,8.29,0,0,1,602.61,97.29Z"/><path class="cls-3" d="M753.33,103.55a17.49,17.49,0,0,1-12-.79c-1.86-.83-3.76-3.18-2.31-4.62a12.67,12.67,0,0,0,10.22,4.31C750.72,102.35,752.65,102.19,753.33,103.55Z"/><path class="cls-3" d="M526.63,81.62a22.43,22.43,0,0,1,7.28-.61A8.06,8.06,0,0,1,540,84.66c1.51,2.67.73,6.16-1.1,8.61s-4.53,4.09-7.18,5.63a5.36,5.36,0,0,1-3.13,1c-1.11-.12-2.16-1.29-1.71-2.31,3.05,1.25,6.23-1.32,8.53-3.68,1.73-1.78,3.6-3.91,3.32-6.38s-2.45-4-4.73-4.53a16.92,16.92,0,0,0-6.93.46Z"/><path class="cls-3" d="M576.72,82.19a50.2,50.2,0,0,0-8.34-4.38c.9-1.37,3-.79,4.48-.07a29.75,29.75,0,0,1,7.72,4.85c2.2,2.12,3.75,5.13,3.38,8.16-.14,1.16,1.24,1.94,2.41,2s2.41-.26,3.48.21c-.08,1.15-1.52,1.65-2.67,1.59s-2.42-.35-3.38.29c-1.15.76-1.21,2.38-1.57,3.71s-1.9,2.69-3,1.82c.87-3.51,3.72-6.53,3.53-10.14S579.64,84.09,576.72,82.19Z"/><path class="cls-3" d="M549.44,107.59c2.37,0,3.85,2.65,4.16,5a13.59,13.59,0,0,1-2.35,9.47,7.35,7.35,0,0,1-3.91,3.05,3.91,3.91,0,0,1-4.41-1.62c3.54.6,7.05-2.15,8.14-5.57S551.21,110.71,549.44,107.59Z"/><path class="cls-3" d="M473,96.47c-2.73.44-4.49-2.91-4.7-5.67a8.24,8.24,0,0,1,.84-4.86,4,4,0,0,1,4.21-2c.71.47-.32,1.38-1.07,1.79-1.79,1-2.44,3.33-2.05,5.34A14.6,14.6,0,0,0,473,96.47Z"/><path class="cls-4" d="M547.34,171.64h0"/><path class="cls-4" d="M547.34,171.64h0"/><path class="cls-3" d="M531.51,166.68a8.57,8.57,0,0,0,12.09-1.84c.62-.95,1.9-2.15,2.59-1.24a10.52,10.52,0,0,1-10,7.07C533.84,170.59,531.09,169,531.51,166.68Z"/><path class="cls-4" d="M528.29,208.21l.2.1"/><path class="cls-3" d="M541.55,204.15l-13.13,3.76c.49.1.65-.76.24-1a1.67,1.67,0,0,0-1.44,0L501.9,215.2c2.18-2.62,5.6-3.8,8.85-4.82q12.78-4,25.78-7.35C538.35,202.56,540.83,202.41,541.55,204.15Z"/></g><path class="cls-3" d="M640.91,81.59c-3.06,4-4,4.73-7.8,6.76a.45.45,0,0,1-.58-.66c5.87-8.51,4.41-19.21,3.77-29.58a21,21,0,0,0-1.66-6.74c-.32-.75-3,.22-2.92,1,.88,7.75-11.25,21.75-29,28.75-5.09,2-8-7.06-11.62-10.62-5.21-5.08-13.72-7-21-7-9,0-21,5-21,5a29.56,29.56,0,0,0-9-2c-22,0-38.71.67-55,3-7,1-9.12,1-19.07-.5a1.68,1.68,0,0,0-1.79,2.33c.8,1.81,1.28,3.5,1.86,5.16-6.38.64-4.6,11.64-9.79,15.39a23.88,23.88,0,0,0-8.4,26.2c1.06,3.17,2.83,6.56,1.58,9.67-4.61,11.41,3.28,25.45,14.71,30q1.1,4.2,2.22,8.39c.75,2.81,1.72,5.92,4.27,7.31-9.69,4.73-10.87,5-18.41,10.9a2.35,2.35,0,0,0-.61,3,15,15,0,0,0,3.73,4.95c2,1.41,5.71,2.54,7.7,1.19,7.22-4.91,6-4.05,15.13-6-1.56,8.87-10.12,14.55-13.38,18.51a3.2,3.2,0,0,0-.68,2.43c.33,2.64,0,5.54.69,8.06a3.58,3.58,0,0,0,3.13,2.25,90.74,90.74,0,0,0,19-4.5c5.46-2.13,8.73-4.3,10.88-9.75,1.16-2.93,4.48-4.54,7.44-5.62s6.54-4.18,6.5-4.75l14,4.88,2-.46,4.16-2.38-1.71-.33-17.71-3.39a23.15,23.15,0,0,0,4.43-6.66c.93-2.11,1.55-4.4,3-6.17S524,176.78,526,178a20.68,20.68,0,0,0,31.19-19.83c-.4-4,3.62-7.31,7.6-7.83s8,.86,11.87,1.82a57,57,0,0,0,35.86-3l-22.58-4.46c-4-.78-8.56-2.07-10-5.85a163.72,163.72,0,0,0,42,8.76l4.14-2.26A147.2,147.2,0,0,1,572,134.4c6.66,10.4,20.35,13.23,32.55,15.14a61,61,0,0,1-40.14-2.76A16.16,16.16,0,0,0,561,133.21a17.34,17.34,0,0,1-27.05,20.56,3.31,3.31,0,0,1-.71-2.74l.7-15.37a17,17,0,0,0,13.07,0c2.94-1.24,6.5,1.45,6.82,4.62s-1.95,6.19-4.8,7.62-6.17,1.57-9.36,1.35A10,10,0,0,0,552,133.44a23.41,23.41,0,0,0,11.75-20.71c-.1-3.32,4.21-4.81,7.5-4.48s7,1.38,9.67-.53l-11-1.8a113.49,113.49,0,0,1,23.68-.73c.52,3.93-4.74,7.18-8,5-.6,2.4,3,4,5.14,2.77s3.15-3.69,4.39-5.83,3.33-4.28,5.76-3.84c15.25,2.74,33.74-6.84,40.88-20.73C642,82,641.22,81.17,640.91,81.59ZM532.66,69.27c.15.92-.66,1.69-1.41,2.26a43.9,43.9,0,0,1-24.44,8.74A30.62,30.62,0,0,1,532.66,69.27ZM485.4,72.58a216.33,216.33,0,0,1,30.94-3.09c-.93,2.31-11.8,11.26-12.7,11.79-1.8,1.07-3.84,2.19-5.9,1.74a8.48,8.48,0,0,1-2.85-1.49l-11.08-7.76C483.79,73,484.69,72.71,485.4,72.58ZM448.92,114.2a23.94,23.94,0,0,1,9.27-21.58c1.72,1.8,1.53,4.72.59,7s-2.52,4.31-3.33,6.66a11.42,11.42,0,0,0,1.7,10.45c.77,1,2.28,1.87,3.14,1a14.39,14.39,0,0,1-.82-16.31c1.51,1.61,1.85,4,2.69,6s2.74,4.09,4.9,3.61c-3.5-5.42-6.25-11.54-6.38-18s2.81-13.21,8.45-16.34l-3-5.22,2.62,0a7.87,7.87,0,0,1,4.17.84,2.92,2.92,0,0,1,1.34,3.11A4.85,4.85,0,0,1,479,73.63a13.56,13.56,0,0,1,5.39,2.65l10.1,7a2.38,2.38,0,0,1,1.37,3.27l-4.13,13.72c-3.37-3.41-9.49-2.73-13,.55S473.95,109.24,474,114a6.57,6.57,0,0,0-7.09,0,11.19,11.19,0,0,0-4.45,5.87A17.52,17.52,0,0,0,463,133,24,24,0,0,1,448.92,114.2ZM528,147.6a5.84,5.84,0,0,1,3,2.85,3.35,3.35,0,0,1-.8,3.89c-1.47,1.14-3.72.45-5-.87-2.09-2.13-2.52-5.34-2.85-8.31a4,4,0,0,1,0-1.21c.34-1.46,2.18-1.89,3.67-2,1.65-.15,3.47-.28,4.81.7s1.5,3.52-.08,4a7.31,7.31,0,0,0-8.1-.32A19.18,19.18,0,0,1,528,147.6Zm-5.53-9.2a2.77,2.77,0,0,1,1.44-1.62c1.7-1.09,3.66-2.22,5.63-1.75s3.08,3.54,1.31,4.52l-4.31.78a5.57,5.57,0,0,1-2.64,0A1.9,1.9,0,0,1,522.51,138.4Zm9.3-7.6a8.31,8.31,0,0,1-2.46,1.4l-7.43,3.19c-4.66,2-9.73,4-14.67,2.87a8.14,8.14,0,0,1-5.7-4.23c-1-2.23-.3-5.28,1.88-6.4,3.93-2,6.48-5.87,9.49-9.1s7.29-6.07,11.57-5c3.94,1,6.36,4.92,7.83,8.71C533.42,125.07,534,128.73,531.82,130.79Zm-26,19c-.26-1.51-.42-3.44.89-4.27-1.39-1.74-3.7-5.12-4.19-7.3,3.45,0,8.14,3.06,10.25,5.79.79,1,2.51.34,3.18-.75s.81-2.46,1.55-3.5,2.6-1.48,3.17-.34a2.15,2.15,0,0,1,.15,1.08,6.82,6.82,0,0,1-3.67,5.6c-3.21,1.62-7.08.45-10.48-.76a8,8,0,0,0,11.17,2.6c.86-.61,2-1.41,2.81-.8a12.34,12.34,0,0,1-4.84,14.52c-2.58,1.6-5.8,2.25-7.86,4.47a1.1,1.1,0,0,1-1.31-.15A67,67,0,0,0,505.77,149.82Zm4.2-30.59c-2.75,3.32-6.26,5.93-9.73,8.49-1.78-1.58-.9-4.23-.59-7.45-2.37-5-3.9-10.32-1.23-15.11a9.72,9.72,0,0,1,12.79-3.56,6.62,6.62,0,0,1,2.4,2.23,7.36,7.36,0,0,1,.93,3.6C514.69,111.74,512.73,115.9,510,119.23Zm-12.37,2.08a9.08,9.08,0,0,1,.22,5.12c-.56,1.65-2.51,2.92-4.06,2.16l-9-4.43c-2.26-1.11-4.61-2.3-6.14-4.3a12,12,0,0,1-2.15-6,14.59,14.59,0,0,1,1.58-8.95,9.07,9.07,0,0,1,7.5-4.66,7.47,7.47,0,0,1,4.26,1.34c2.7,1.89,3.83,5.26,4.74,8.42Q496.22,115.64,497.61,121.31ZM482.23,179a5,5,0,0,1,1.45-.86,13.13,13.13,0,0,1,5.38-1,56.34,56.34,0,0,1-2,13.85,3.89,3.89,0,0,1-3.66-1.31c-1.38-1.62-1-4.67,1.08-5.27C482,184.49,480.36,180.69,482.23,179Zm2-11.86a5.1,5.1,0,0,1-.12-3.49,6.3,6.3,0,0,0,.11-3.52l1.54-.32a26.73,26.73,0,0,1,1.43,7.94C486.48,168.67,484.83,168.17,484.26,167.12Zm-2.61-1.31c-3-1-5-3.92-5.69-7s-.4-6.24-.08-9.35a2.93,2.93,0,0,1,.36-1.31c.87-1.32,2.87-.45,4.37.05a7,7,0,0,0,6-.78A56.6,56.6,0,0,0,481.65,165.81Zm0-19.51c-3.42-.22-7.2-2.93-6.55-6.31,1.12-.9,2.81-.1,3.82.93s2,2.33,3.38,2.55c2.43.38,3.92-2.53,4.61-4.89,1.26-.16,2.18,1.31,2.16,2.58C489,144.52,485,146.51,481.62,146.29ZM475,137.62a14.36,14.36,0,0,1-10.58-8.52,11.55,11.55,0,0,1,3.15-12.87c1.92-1.54,4.88-.66,6.68,1s3,3.93,4.67,5.7c3.64,3.78,9.23,4.76,13.92,7.12,1.28.64,2.67,1.68,2.59,3.12-.11,1.85-2.4,2.55-4.21,2.88C485.82,137,480.36,138.68,475,137.62Zm-10.39,3.48,4.19.54a8.05,8.05,0,0,1,3.68,1.11,2.78,2.78,0,0,1,1.12,3.37l-6.21.36C464.83,146.62,463,143.08,464.59,141.1Zm-.66-7.16,9.13,5.57c-.15.71-1.07.9-1.79.89a12.72,12.72,0,0,1-2.59-.29,7.29,7.29,0,0,1-3.94-2A3.87,3.87,0,0,1,463.93,133.95Zm-12,11.34c-2.73-5.35-3.45-12.06-.46-17.26a15.67,15.67,0,0,1,10.39,17.68,8.2,8.2,0,0,1-5.28-6.94c-2.08.79-1.25,4.06.48,5.46s4.13,2.37,4.7,4.52l2.23,8.39C459.64,153.61,454.39,150.12,451.93,145.29Zm13.48,8.49c-1.5-.93-2.09-3.39-.69-4.47,1-.77,2.35-.55,3.58-.6,2.18-.07,5.11-.64,5.88,1.39s-1.62,3.52-3.6,4C468.86,154.53,466.93,154.71,465.41,153.78Zm1.57,2.84,3.92-.76a3,3,0,0,1,1.25-.05,2.11,2.11,0,0,1,1.39,1.78,3.48,3.48,0,1,1-6.56-1Zm-6.76,30.68a6.51,6.51,0,0,0,.79.73c1.29,1.31-.54,3.73-2.36,3.48s-3-2-3.7-3.73a2.33,2.33,0,0,1-.22-1,2.53,2.53,0,0,1,1.19-1.63c7.21-5.58,5.65-5.12,13.74-9.33,1.12-.59,2.65-1.11,3.52-.19-5.59,6.16-3.28,5.65-11,8.84C461,185,459.47,186.2,460.22,187.3Zm17.23-3.74c-.43.82-1.48,1-2.4,1.12-2,.23-7.06,3-8.25,3.59-3.08,1.51-4.2-1.34-3.83-2.15l4.23-2c2.21-1.77,3.38-3.78,5.59-5.55a3.61,3.61,0,0,1,1.47-.84c2-.42,3,2.19,3.31,4.19A2.9,2.9,0,0,1,477.45,183.56Zm-7.4-13.31c-1.13-1-2.26-2.41-1.73-3.79a5.46,5.46,0,0,1,10-.36c-.19,1.62-2.58,1.74-4,1s-2.91-2-4.47-1.58a7.61,7.61,0,0,0,10.24,2.73,1.21,1.21,0,0,1,1.62.67,3.5,3.5,0,0,1,.08,2l-.51,3.4a1.71,1.71,0,0,1-.56,1.24,1.68,1.68,0,0,1-1.43,0A27,27,0,0,1,470.05,170.24Zm11.33,18.82c1.51,1.62,1.48,2.44,3,4.07a3.75,3.75,0,0,1,1,1.55,3.32,3.32,0,0,1-.37,2,16.25,16.25,0,0,1-9.33,8.66c-2.23.8-5.32.76-6.31-1.4C475.45,201.3,481.27,195.7,481.38,189.07Zm-13.89,17.48c5.73,3.21,13.33,0,17.19-5.29s4.94-12.09,5.9-18.58l1.65-11.17a57,57,0,0,1-5.41-13.3,11.33,11.33,0,0,1-.51-3.86c.46-5.29,7.24-8.6,7.09-13.92l-1.65,1c-1.51-.22-1.58-2.77-.21-3.44s3.09.28,3.82,1.62a9.17,9.17,0,0,1,.69,4.48l-.53,29.35c-.17,8.84-.42,18-4.46,25.91s-13.1,13.91-21.61,11.51a4.36,4.36,0,0,1-2.67-1.66A1.87,1.87,0,0,1,467.49,206.55Zm28.21-6.65c-3.33,5.55-7.16,11.51-13.3,13.56-5.08,1.7-10.83.36-15.81,2.3-.8-1.42.63-3.23,2.22-3.58s3.24.22,4.85.48c8.11,1.3,15.5-5.35,19.17-12.69,8.75-17.48,3.62-38.37,5.18-57.86.09-1.21.7-2.83,1.91-2.6a39.7,39.7,0,0,1,3.35,29.85,35.26,35.26,0,0,0-1.57,6.25c-.25,2.57.32,5.15.3,7.74C501.95,189.32,498.78,194.76,495.7,199.89Zm20.67-17.49a25.71,25.71,0,0,1-16.54,15.33c2.48-5.37,5-11.05,4.46-16.93a4.79,4.79,0,0,1,.12-2.3,1.38,1.38,0,0,1,1.87-.77,15,15,0,0,0,9.44,2.57C516.59,180.24,516.68,181.58,516.37,182.4Zm-10.48-6.93a2.71,2.71,0,0,1-1.17-1c-.46-.89.08-2,.61-2.81a10.6,10.6,0,0,1,3.36-3.87c1.49-.88,3.67-.84,4.7.56,1.55,2.09,3.3,4.34,5.85,4.9,2.09.46,4.47-.28,6.27.87A18.2,18.2,0,0,1,505.89,175.47Zm15.83-3.52c-3.22-.39-5.22-3.6-7.9-5.42a2.09,2.09,0,0,1,.26-1.87c2-.93,4.1.9,5.56,2.54s3.66,3.4,5.58,2.35a11,11,0,0,0-3.34-2.72,5.87,5.87,0,0,1-2.77-3.22c-.35-1.41.68-3.18,2.13-3.05L527,165C528.35,168.23,525.2,172.38,521.72,171.95Zm4.1-10.29a6.76,6.76,0,0,1-3.32-3,3.21,3.21,0,0,1,1-4c1.36,1.24,3.32,1.62,4.78,2.75s2.06,3.79.4,4.59A3.11,3.11,0,0,1,525.82,161.66Zm29.58-4c1.18.88.94,2.7.49,4.1a34.1,34.1,0,0,1-5.63,10.67c-1,1.32-2.93,2.65-4.2,1.55a12,12,0,0,1-15.62,4c-1.62-.94-3.12-3-2.15-4.55.59-1,2-1.92,1.31-2.82-1-1.38-.52-3.32,0-4.95q1.75-5.22,3.49-10.42A20,20,0,0,0,555.4,157.65Zm40.81-59A6.12,6.12,0,0,1,594.7,102c-1.11,1-2.76,1-4.25,1L570.67,103a14.64,14.64,0,0,0-.93-12.36,56,56,0,0,1-1.39,10.93,7.64,7.64,0,0,1-2,4.2c-1.2,1.05-3.33,1.15-4.2-.17-2-3.13,5.08-7.48,2.32-10a8.9,8.9,0,0,1-6.64,5.83,21.1,21.1,0,0,1-24.94,31.73,13.82,13.82,0,0,0-16.58-20.69,10.3,10.3,0,0,0-17.39-10.6c-.87,1-1.95,2.4-3.24,2s-1.38-2.2-1.2-3.55c.68-5.12,1.58-10.69,5.42-14.15,2.51-2.26,5.9-3.24,9.17-4.07q11.21-2.87,22.63-4.75c6.34-1,14.57-.87,17.07,5.05a10.7,10.7,0,0,0-11-8.14c-1.39.12-2-2-1.06-3.09s2.46-1.23,3.85-1.33c2.57-.19,7.87,1.08,7.94,1.9,6.85-3.58,14.37-6.26,22.09-6.17s15.69,3.27,20.2,9.54a17.22,17.22,0,0,0-9.47-.36c2.11,2.16,5.63,1.68,8.6,2.3s5.83,4.44,3.48,6.35C598,86.41,597.35,93.22,596.21,98.61Zm14.2,2.81c-.56-.37.25-1.14.9-1.28l3-.66h0a11.61,11.61,0,0,0,5.95-1.29h0l3.52-.77A19.66,19.66,0,0,1,610.41,101.41Zm7.21-4.56h0a115.07,115.07,0,0,1-19.81,4.83c1.58-2.75.72-6.18.46-9.34s.8-7.12,3.91-7.76C614.6,82,626.93,70.92,632.53,59.36c1.35.76,1.17,2.49,1,4.15-.5,6.59-1.09,13.48-4.62,19.07C626,87.23,622.14,93,617.62,96.85Z"/><path class="cls-3" d="M681.3,120.64a16.28,16.28,0,0,0-2-3.93,16.74,16.74,0,0,0-1.08-1.43l-.17-.2a21.59,21.59,0,0,0-4.93-4.09,29.44,29.44,0,0,0-4.78-2.26c-1.08-.39-2.16-.73-3.26-1s-2.45-.6-3.68-.83a66.85,66.85,0,0,0-12.15-.93,37.44,37.44,0,0,0-6.13.51c-2,.37-14.47,2.32-19.61,2-1.26-.09-1.59-1.53-.42-2a38.73,38.73,0,0,0,6.13-3c4.84-2.7,10.34-6.39,13.08-11.21,2.51-4.41,3.14-11.39.63-15.71a1.41,1.41,0,0,0-2.42.25,13.41,13.41,0,0,0,.41,4.81c.06.1,1.05,2.12.87,3.11-1.37,7.37-7.84,12.65-14.36,16.35a82.76,82.76,0,0,1-21.23,8.4c.62,1,2,1.12,3.16,1.14l14.81.24a46.18,46.18,0,0,0,6.5-.43h0a48,48,0,0,0,6.93-1,50,50,0,0,1,5.79-1.07,39.44,39.44,0,0,1,5.81-.12,75.94,75.94,0,0,1,11.65,1.38,33.27,33.27,0,0,1,10.71,3.9,18.61,18.61,0,0,1,3.79,3c.17.17.33.34.49.52s.37.43.55.66a15.08,15.08,0,0,1,2.29,4,18.2,18.2,0,0,1,1.21,5.41,30.17,30.17,0,0,1-.21,5.71c-.07.49-.14,1-.23,1.46-.21,1.18-.47,2.37-.78,3.54l0,.08q-.51,1.91-1.16,3.79a.8.8,0,0,1,0,.11c-.27.78-.55,1.56-.86,2.32-.73,1.89-1.54,3.75-2.42,5.58-.45.93-.91,1.85-1.39,2.77q-.55,1.06-1.14,2.1l-.17.3.22-.29q.75-.94,1.44-1.91a60.67,60.67,0,0,0,4.8-8,45.18,45.18,0,0,0,4-11.5A23.5,23.5,0,0,0,681.3,120.64Z"/></g></g></svg>