<svg xmlns="http://www.w3.org/2000/svg" xmlns:xlink="http://www.w3.org/1999/xlink" viewBox="0 0 514.21 73.07"><defs><style>.cls-1{fill:#eba97c;}.cls-2{fill:#040000;}.cls-3{fill:#231815;}.cls-4{fill:#080103;}.cls-5{fill:#e3a57a;}.cls-6{fill:none;}.cls-7{fill:url(#名称未設定グラデーション_15);}.cls-8{fill:#fff;}</style><linearGradient id="名称未設定グラデーション_15" x1="366.04" y1="6.13" x2="377.07" y2="28.47" gradientTransform="translate(4.38 -3.49) rotate(6.2)" gradientUnits="userSpaceOnUse"><stop offset="0" stop-color="#f3a16a"/><stop offset="1" stop-color="#b7b3b0"/></linearGradient></defs><title>アセット 12</title><g id="レイヤー_2" data-name="レイヤー 2"><g id="レイヤー_1-2" data-name="レイヤー 1"><path class="cls-1" d="M53.49,31.36l-8,6.29,5,7.13L46.28,59.45,33.37,69.51H0L3.35,62.8l13-45.28V10.82h33l7.21,9.89ZM35,44.78,32.53,43.1H22.47l-1.09.84-4,13.83L18.28,59h9.81l3.35-1.68,2.93-2.93,1.93-6.71ZM41.5,22.14,39,20.46H28.93l-1.09.84-3.1,10.9.59.84H35.64L39,31.36l2.93-2.93.84-3.35Z"/><path class="cls-1" d="M99.77,16.27V62.8l1.43,6.71H85.27L88,62.8V56.1l-.59-.84H71.18L70,56.1,66.65,62.8l-1.09,6.71H49l5.28-6.71L79.65,16.27V10.82h23ZM76.3,44.36l.59.84H86.94L88,44.36V22.56L88.45,20Z"/><path class="cls-1" d="M150.08,29.68V61.55l2.68,8H137.92V40.17h-2.1L128,46l-1.26,1.51L122.41,62.8v6.71H106.48l3.35-6.71,13-45.28V10.82h15.93l-3.35,6.71-4,13.84L130.54,33,153,15.85l2.52-5h12.16l1.68,3.77Z"/><path class="cls-1" d="M219.24,17.53,208.93,53.41v4.78L194.26,69.51h-21.8l-8-11.07,2.52-5,10.31-35.89V10.82h15.93l-3.35,6.71L179.42,54l1.26,2.93,2.52,1.68h6.71l3.35-1.68L196.19,54l10.48-36.47V10.82H222.6Z"/><path class="cls-1" d="M260.32,20.88H249l-3.35,1.68-2.35,2.35-1.17,4.36,2,2.93,11.57,4.19,5.45,8L257,59,243.13,69.51H219.66V55.68l7.55,2.93h11.74l3.35-1.68L245,54.25l1.68-6.12-2-2.93L233.07,41l-5.45-8L231,21.3,244.9,10.82H267V23.4Z"/><path class="cls-1" d="M323.2,17.53,312.89,53.41v4.78L298.22,69.51h-21.8l-8-11.07,2.52-5,10.31-35.89V10.82h15.93l-3.35,6.71L283.38,54l1.26,2.93,2.52,1.68h6.71l3.35-1.68L300.15,54l10.48-36.47V10.82h15.93Z"/><path class="cls-1" d="M351.71,17.53l-13,45.28v6.71H322.78l3.35-6.71,13-45.28V10.82h15.93Z"/><path class="cls-2" d="M64.85,25l2.8-1.4a24.51,24.51,0,0,1,7,3.5q2.8,2.1,2.8,4.2a8.63,8.63,0,0,1-2.1,4.89q-2.1,2.8-7.69,4.2a47.86,47.86,0,0,0-9.79,3.5q-4.2,2.1-16.78,3.5L39.67,46a151.78,151.78,0,0,1,14-6.29,33.11,33.11,0,0,0,9.09-4.89Q66.24,32,64.85,25Zm21-1.4,1.4-1.4q8.39,1.4,13.29,4.89t4.89,7a7.56,7.56,0,0,1-2.1,5.59q-2.1,2.1-5.59-.7a19.36,19.36,0,0,1-5.59-7.69A17.1,17.1,0,0,0,85.82,23.64Zm7-14,1.4-1.4q5.59,2.8,7,5.59t-1.4,4.89q-2.8,2.1-3.5-1.4A22.1,22.1,0,0,0,92.82,9.65Zm5.59-5.59,1.4-1.4q5.59,2.8,7,6.29t-1.4,4.89q-2.8,1.4-3.5-2.1A22.1,22.1,0,0,0,98.41,4.06Z"/><path class="cls-2" d="M123,52.09l-1.4-1.4q7-4.2,9.79-8.39a98.06,98.06,0,0,1,6.29-8.39q3.5-4.2,3.5-7.69a12,12,0,0,1,.7-4.89,2.82,2.82,0,0,1,2.8-1.4,7.53,7.53,0,0,1,4.2,1.4q2.1,1.4,2.1,2.8v2.8q0,1.4,2.8,1.4a17.18,17.18,0,0,0,6.29-1.4q3.5-1.4,5.59-.7a8.82,8.82,0,0,1,3.5,2.1,4.75,4.75,0,0,1,1.4,3.5,2.74,2.74,0,0,1-2.1,2.8q-2.1.7-4.89,4.89a97.9,97.9,0,0,1-7.69,9.79q-4.9,5.59-14.68,12.59T116,73.07l-1.4-1.4q8.39-2.8,12.59-6.29a89.05,89.05,0,0,1,9.79-7A42.34,42.34,0,0,0,146.78,50q4.2-4.89,7-8.39t2.8-5.59q0-2.1-2.8-2.8a20.55,20.55,0,0,0-4.89-.7,4.75,4.75,0,0,0-3.5,1.4,41,41,0,0,1-4.2,3.5,90.82,90.82,0,0,0-8.39,7.69Q127.2,50.69,123,52.09Z"/><path class="cls-2" d="M204.77,31.41l1.4-2.8q1.4-1.4,4.89-.7a29.24,29.24,0,0,0,9.09,0,37.52,37.52,0,0,0,9.09-2.1,15,15,0,0,0,4.89-2.8,4,4,0,0,1,2.8-1.4,6.81,6.81,0,0,1,3.5,1.4,6.74,6.74,0,0,1,2.8,3.5,4.63,4.63,0,0,1-.7,4.2q-1.4,2.1-3.5,4.89a74.15,74.15,0,0,0-4.2,6.29,28.39,28.39,0,0,1-6.29,7q-4.2,3.5-9.79,7.69t-21,8.39l-1.4-1.4a116.85,116.85,0,0,0,15.38-7.69,54.91,54.91,0,0,0,9.79-7.69,69.67,69.67,0,0,0,6.29-7,15.39,15.39,0,0,0,2.8-6.29q.7-3.49,0-4.2t-4.89,0a24.94,24.94,0,0,0-7,2.1,38.41,38.41,0,0,1-4.89,2.1,6.45,6.45,0,0,1-4.2,0A13.75,13.75,0,0,1,204.77,31.41Zm22.38,15.38,5.59-8.39q4.2,5.59,9.09,7a26.69,26.69,0,0,1,7,2.8,10.56,10.56,0,0,1,3.5,4.2,6.38,6.38,0,0,1,.7,4.89,4.2,4.2,0,0,1-2.8,2.8q-2.1.7-4.89-2.1L239,51.69Q235.53,48.2,227.14,46.79Z"/><path class="cls-2" d="M298.64,14l1.4-1.4q5.59,0,7.69,2.1a10.38,10.38,0,0,1,2.8,4.89q.7,2.8-3.5,6.29T297.25,35a65.06,65.06,0,0,1-12.59,9.79,77.32,77.32,0,0,1-15.38,7l-1.4-1.4a54.63,54.63,0,0,0,13.29-7.69,55.81,55.81,0,0,0,10.49-10.49,82,82,0,0,1,7-8.39q2.8-2.8,2.8-5.59A4.48,4.48,0,0,0,298.64,14Zm-5.59,21,9.79-8.39q-1.4,8.39,0,11.89a10.2,10.2,0,0,1,.7,6.29,20.91,20.91,0,0,0,0,7.69,58,58,0,0,1,.7,7.69,5.7,5.7,0,0,1-1.4,4.2,4.74,4.74,0,0,1-3.5,1.4,2.74,2.74,0,0,1-2.8-2.1q-.7-2.1,0-8.39a44.82,44.82,0,0,0,0-11.19A21.77,21.77,0,0,0,293.05,35Z"/><path class="cls-3" d="M322.87,18.12a13.44,13.44,0,0,1-5.17,1.26,6.9,6.9,0,0,0-2.47.49A18.89,18.89,0,0,0,312.07,22a18.77,18.77,0,0,1-4.27,2.72.53.53,0,0,1-.6-.06c-.11-.14-.06-.35.13-.52A19.89,19.89,0,0,0,310.09,20C313.26,14.49,318,6.15,327,6.8c2.17.16,3.4,1.23,3.38,2.94,0,2.19-2.19,5.54-7,8.11Zm-7.93,1a8.18,8.18,0,0,1,3-.62A11.72,11.72,0,0,0,323,17.2c4.29-2.31,6.27-5.36,6.29-7.21,0-1.39-1-2.22-2.73-2.35-8-.59-12.38,7-15.55,12.5-.66,1.16-1.25,2.18-1.8,3,.77-.49,1.47-1,2.2-1.61a20.42,20.42,0,0,1,3.43-2.31Z"/><path class="cls-4" d="M396.39,59.71c-.08,0-.09,0,0-.17C396.38,59.59,396.38,59.65,396.39,59.71Z"/><path class="cls-4" d="M438.11,56.42l-.18,0Z"/><path class="cls-4" d="M512.63,14l.62-.19c.07.34-.23.63-.48.88a7.37,7.37,0,0,0-1.87,3c-.47,1.39-1.92,2.18-3.27,2.75a12.36,12.36,0,0,1-7,1.23c-2.17-.41-3.65-2.24-5.2-4.43-2.16.29-4.84,1.08-6.31,2.36,2.59,1,3.54,4.55,2.24,7s-4.25,3.69-7,3.59a16.24,16.24,0,0,1-.86,3.55c.88.35,3.1,1.95,3.46,2a68.06,68.06,0,0,1,13.2,5.3c0,.05,0,.11,0,.16a5.35,5.35,0,0,1,3,2.9,14.83,14.83,0,0,1,1,4.88L487.8,44.3c-.88,2.68.17,5.58,1.22,8.2l4.32,10.87c1,2.51-.91,5.17-2.7,7.2l-7.56-14.12c-.36-.68-1.13-1.47-1.75-1-4.45,3.22-10.64,4.46-15.54,2C461,55,458.55,47.14,461,42.4a28.89,28.89,0,0,1-21.36,6.92l-2.31,4.34a3.15,3.15,0,0,0-.52,1.76,1.15,1.15,0,0,0,1.09,1,5.58,5.58,0,0,0-4,3.76,4.68,4.68,0,0,1,3-1c-1.75,2-4.8,2-7.46,2.06a42,42,0,0,0-15.92,3.65A9.05,9.05,0,0,1,409.6,66c-1.36,0-2.8-1-2.77-2.4A128.33,128.33,0,0,1,420,56.41L414.6,54.7a8.91,8.91,0,0,1-3,1.87c-1.13.41-2.5.74-2.94,1.86a8.24,8.24,0,0,1-4.81,4.37A24.39,24.39,0,0,1,397.3,64a13.86,13.86,0,0,1-.91-4.33c.6-.07,5.2-3.77,5.85-7.52-3.59.76-3.5.19-6.52,2.28a2.25,2.25,0,0,1-2.56-.24A6.61,6.61,0,0,1,391.52,52c3.42-2.72,3.6-3,7.53-4.93a4.16,4.16,0,0,1-1.62-2.79l-.85-3.19c-4.35-1.75-7.36-7.09-5.6-11.44.48-1.18-.19-2.47-.6-3.68a9.09,9.09,0,0,1,3.2-10c2-1.43,1.46-5.55,3.89-5.79l-1-2.93a33.27,33.27,0,0,0,12.88,0c6.14-1.24,12.53.22,18.75-.57,2.75-.35,5.44-1.14,8.21-1.31S442,5.77,444,7.71C445.38,9,446.23,11,448,11.79c2.8,1.31,5.86-1,8.06-3.22,1.34-1.33,3-3.67,4.4-5.13l0,0A6,6,0,0,1,460.7,0a16.63,16.63,0,0,1,.88,3.15c.73,4.15-.11,9.85-2.89,13.18a15.68,15.68,0,0,0,5.18-4.22c-.12-.2-.25-.4-.35-.6-.3-.58-.26-1.52.38-1.63a5.54,5.54,0,0,1,.09,6A11.72,11.72,0,0,1,459.32,20a27.7,27.7,0,0,1-5.06,2.19,34.1,34.1,0,0,0,7.86.09h0l.34-.11a18.6,18.6,0,0,1,2.24-.6,14.26,14.26,0,0,1,2.33-.19,25.46,25.46,0,0,1,4.63.36q.7.13,1.4.31c2.22-1.65,5.57-1.95,8.32-1.66a15,15,0,0,1,11-7,4.32,4.32,0,0,0,2.87-.94c1.78-2,4.84-1.94,7.48-1.63s5.58.67,7.71-.91a2.49,2.49,0,0,1,3.67,1.16A2.52,2.52,0,0,1,512.63,14Z"/><g id="シェイプ_16" data-name="シェイプ 16"><path class="cls-5" d="M475.57,39.87l-.06.11.08-.11ZM486.9,23.05a2.1,2.1,0,0,1,.13-2c-.4-.22-.91.15-1,.6a2.24,2.24,0,0,0,.25,1.32l.94,2.31a.63.63,0,0,0,.53.1,1,1,0,0,1,.38-.6A6.26,6.26,0,0,1,486.9,23.05Zm-.68,13.55a2.78,2.78,0,0,0-.83.16,19.43,19.43,0,0,1-2.52-1.91l-1.4-.81c-1,1-1.33,2.53-2.1,3.75s-2.19,1.89-3.24,1.35l-.14-.08q-.21.4-.43.8l-.06.11.08-.11a1.21,1.21,0,0,1,.35.13,2.69,2.69,0,0,0,1.81.14,10.42,10.42,0,0,0,6.38-4,9.9,9.9,0,0,0,3.36,1.64.59.59,0,0,1,.29.81,1.71,1.71,0,0,1-.69.67l-2.26,1.48c-1.5,1-3.15,2-4.94,1.87a4.18,4.18,0,0,1-3.21-2l-2.25.54-.6.89a3.15,3.15,0,0,1,2.71-.29c.6.24,1.12.65,1.7.93a6.1,6.1,0,0,0,5.22-.21,18,18,0,0,0,4.32-3.22c2-1.83,5.3,2.21,7.66.85A59.63,59.63,0,0,1,486.22,36.61Zm-6.6,2.06q.56-1.09,1.2-2.15a2.55,2.55,0,0,1,1-1.08.93.93,0,0,1,1.26.4A5.16,5.16,0,0,1,479.62,38.67Zm6.6-2.06a2.78,2.78,0,0,0-.83.16,19.43,19.43,0,0,1-2.52-1.91l-1.4-.81c-1,1-1.33,2.53-2.1,3.75s-2.19,1.89-3.24,1.35l-.14-.08q-.21.4-.43.8l-.06.11.08-.11a1.21,1.21,0,0,1,.35.13,2.69,2.69,0,0,0,1.81.14,10.42,10.42,0,0,0,6.38-4,9.9,9.9,0,0,0,3.36,1.64.59.59,0,0,1,.29.81,1.71,1.71,0,0,1-.69.67l-2.26,1.48c-1.5,1-3.15,2-4.94,1.87a4.18,4.18,0,0,1-3.21-2l-2.25.54-.6.89a3.15,3.15,0,0,1,2.71-.29c.6.24,1.12.65,1.7.93a6.1,6.1,0,0,0,5.22-.21,18,18,0,0,0,4.32-3.22c2-1.83,5.3,2.21,7.66.85A59.63,59.63,0,0,1,486.22,36.61Zm-6.6,2.06q.56-1.09,1.2-2.15a2.55,2.55,0,0,1,1-1.08.93.93,0,0,1,1.26.4A5.16,5.16,0,0,1,479.62,38.67Zm34.49-27.6a2.49,2.49,0,0,0-3.67-1.16c-2.13,1.58-5.07,1.22-7.71.91s-5.7-.34-7.48,1.63a4.32,4.32,0,0,1-2.87.94,15,15,0,0,0-11,7c-2.74-.29-6.09,0-8.32,1.66-.16.12-.32.25-.47.38a13.79,13.79,0,0,1,1.36,1c-.1-.5-.71-.55-.07-.79l.42-.16c3.47-1.27,5.88-1.7,6.52-1.17a2.12,2.12,0,0,1-.19,1.23c-.22.36-.18,1.28-.53,1.79-.71-.21-1.35.29-2,.66a3,3,0,0,1-.66.28,1.5,1.5,0,0,0-.42.18l.19.2.21.25,1.1-.36,2.27-.75c-1.11,2.09,3.15,3.74,2.78,6.08a19,19,0,0,0-.77,3.41,1.3,1.3,0,0,0,.14.59,4.4,4.4,0,0,0,.61-1.11,16.24,16.24,0,0,0,.86-3.55c2.77.1,5.71-1.14,7-3.59s.36-6-2.24-7c1.47-1.27,4.15-2.06,6.31-2.36.36-.05.7-.09,1-.11a3.27,3.27,0,0,0-1.4-.43h0a9.94,9.94,0,0,0-5.54,1.51,9.26,9.26,0,0,0-3.76,3.53c-.73,1.58-.21,3.87,1.46,4.38.75.23,1.42-.68,1.39-1.47a19.75,19.75,0,0,0-.55-2.29c-.12-.78.26-1.77,1.05-1.82a4.89,4.89,0,0,1,.87,6.82,5.21,5.21,0,0,1-6.93.75,5.58,5.58,0,0,1-1.38-6.93,11,11,0,0,1,2.46-2.75c2.48-2.19,5.35-4.47,8.67-4.34,1.11,0,2.52.22,3.06-.75a4.46,4.46,0,0,1,3.74-2,28.34,28.34,0,0,1,4.4.42,16.41,16.41,0,0,0,9-1.66,3.71,3.71,0,0,1-1.15,4.09,1.91,1.91,0,0,0,.41,0h0a1.62,1.62,0,0,0,.32-.1h0A2.52,2.52,0,0,0,514.11,11.06Zm-28.72,25.7a19.43,19.43,0,0,1-2.52-1.91l-1.4-.81c-1,1-1.33,2.53-2.1,3.75s-2.19,1.89-3.24,1.35l-.14-.08q-.21.4-.43.8l-.06.11.08-.11a1.21,1.21,0,0,1,.35.13,2.69,2.69,0,0,0,1.81.14,10.42,10.42,0,0,0,6.38-4,9.9,9.9,0,0,0,3.36,1.64.59.59,0,0,1,.29.81,1.71,1.71,0,0,1-.69.67l-2.26,1.48c-1.5,1-3.15,2-4.94,1.87a4.18,4.18,0,0,1-3.21-2l-2.25.54-.6.89a3.15,3.15,0,0,1,2.71-.29c.6.24,1.12.65,1.7.93a6.1,6.1,0,0,0,5.22-.21,18,18,0,0,0,4.32-3.22c2-1.83,5.3,2.21,7.66.85a59.63,59.63,0,0,1-9.23-3.53A2.78,2.78,0,0,0,485.39,36.76Zm-5.77,1.9q.56-1.09,1.2-2.15a2.55,2.55,0,0,1,1-1.08.93.93,0,0,1,1.26.4A5.16,5.16,0,0,1,479.62,38.67Z"/><path class="cls-5" d="M461.1,42.25c-2,.94-3.89,1.45-5.93,2.42a49.63,49.63,0,0,1-7.41,3,24.77,24.77,0,0,1-6.36,1,2.62,2.62,0,0,1-1.88-.48,2.52,2.52,0,0,1-.61-1.25A15.16,15.16,0,0,1,438.6,41l-1.35,3.39c.89,1,.79,4.88.21,5.21a13.92,13.92,0,0,1-9.91,1.46c-1.11-.26-2.78-.27-2.84.86-.09,1.71-4,.61-4,2.32a20.89,20.89,0,0,1,14,2.67,3.31,3.31,0,0,1-6,1.87,7.38,7.38,0,0,0-5.35-3l1-1.32q-1.33.57-2.65,1.17l-1.69.79a128.33,128.33,0,0,0-13.19,7.23c0,1.36,1.42,2.36,2.77,2.4a9.05,9.05,0,0,0,3.87-1.14,42,42,0,0,1,15.92-3.65c2.66-.08,5.71-.06,7.46-2.06a4.68,4.68,0,0,0-3,1,5.58,5.58,0,0,1,4-3.76,1.15,1.15,0,0,1-1.09-1,3.15,3.15,0,0,1,.52-1.76l2.31-4.34A28.89,28.89,0,0,0,461,42.4l.26-.23ZM423.6,60.81a24.22,24.22,0,0,1-2.48.73c-1.57.26-3.34-.22-4.66.67-.58.4-1,1-1.66,1.28a13.47,13.47,0,0,1-1.77.25A10.64,10.64,0,0,0,410.77,65c-.77.4-1.94.39-2.29-.41s.65-1.79,1.55-2.25l8.8-4.55c1.66-.86,3.5-1.74,5.31-1.31a7.91,7.91,0,0,1,3.25,2.05l2.48,2.2A16.38,16.38,0,0,0,423.6,60.81ZM426,53.08c-.31,0-.61-.34-.52-.64a.7.7,0,0,1,.28-.34,2.38,2.38,0,0,1,2.3-.28,2.07,2.07,0,0,1-1.16,1A1.66,1.66,0,0,1,426,53.08Zm10.26,1.53a2.09,2.09,0,0,1-.72.92,2.06,2.06,0,0,1-1.49.06,26.49,26.49,0,0,1-6.49-2.36A1.56,1.56,0,0,1,429,52.06a7.72,7.72,0,0,1,2,.17,7.39,7.39,0,0,0,3.74-.51c1.19-.49,2.28-1.31,3.56-1.44Q437.38,52.48,436.3,54.61Zm1.62,1.85.18,0Z"/><path class="cls-5" d="M489,52.5c-1-2.62-2.1-5.52-1.22-8.2L504.09,49a14.83,14.83,0,0,0-1-4.88,5.35,5.35,0,0,0-3-2.9l-.05.42a10.37,10.37,0,0,1,2.9,5,1.16,1.16,0,0,1,0,.86c-.28.48-1,.37-1.51.19l-11.12-3.7a4.74,4.74,0,0,0-2.2-.36A1.63,1.63,0,0,0,486.66,45c0,2.9-2.76,5.07-5.54,5.89a9.05,9.05,0,0,1-7.22-.54c-2.12-1.29-3.36-4.17-2.26-6.4l-1.85,2.73a9.63,9.63,0,0,0,16.84,1.08,64.69,64.69,0,0,0,4,10.42A5.34,5.34,0,0,1,488.58,65l-6.09-11.41c-3.69,3.11-8.59,5.16-13.34,4.28s-8.91-5.39-8.31-10.17c.17-1.38.84-4.37.44-5.7l-.18.31-.08.15c-2.48,4.73,0,12.61,4.76,15,4.9,2.48,11.09,1.24,15.54-2,.62-.45,1.39.34,1.75,1l7.56,14.12c1.79-2,3.7-4.69,2.7-7.2Zm3.57,13.37L491,69.34l-1.33-2.27a1.78,1.78,0,0,1,.37-2.6l1.73-2a7.77,7.77,0,0,1,1,2.54A1.44,1.44,0,0,1,492.59,65.87Z"/><path class="cls-5" d="M460,23.08h0a17.59,17.59,0,0,1-2.48.16l-5.64-.09c-.45,0-1-.05-1.2-.43a31.51,31.51,0,0,0,8.09-3.2c2.48-1.41,4.95-3.42,5.47-6.23a1.61,1.61,0,0,0-.26-1.07l-.07-.11c-.12-.2-.25-.4-.35-.6-.3-.58-.26-1.52.38-1.63a5.54,5.54,0,0,1,.09,6A11.72,11.72,0,0,1,459.32,20a27.7,27.7,0,0,1-5.06,2.19,34.1,34.1,0,0,0,7.86.09h0a33.89,33.89,0,0,0,4.78-.85A38.07,38.07,0,0,1,460,23.08Z"/><path class="cls-5" d="M512.78,14.71a7.37,7.37,0,0,0-1.87,3c-.47,1.39-1.92,2.18-3.27,2.75a12.36,12.36,0,0,1-7,1.23c-2.17-.41-3.65-2.24-5.2-4.43l-.38-.54h0l0,0c2.66.4,2.09,1.47,2.54,2.21a4.71,4.71,0,0,0,3.29,2,13.89,13.89,0,0,0,4-.1l.2,0a2.1,2.1,0,0,0,1.24-.61.67.67,0,0,0,.13-.58,4.9,4.9,0,0,0,4.07-2.15c-1.64.83-3.45,1.67-5.24,1.26l4.1-1.43a3.63,3.63,0,0,0,1.3-.67,1.23,1.23,0,0,0,.38-1.33l-5.1,1.46a12.62,12.62,0,0,1-2.59.55,6.38,6.38,0,0,1-4.7-1.66c.64-.43,1.45.16,2.16.47a5.92,5.92,0,0,0,3.54.05q4-.79,7.95-2h0l.32-.1h0l.62-.19C513.32,14.17,513,14.47,512.78,14.71Z"/><path class="cls-5" d="M500.77,46.92a8.41,8.41,0,0,1-1.48-4,3.3,3.3,0,0,0-.31-1.42,2.71,2.71,0,0,0-1.3-.93q-4.45-2-9.06-3.49a6.83,6.83,0,0,0-2.39-.47q-1.7-.82-3.36-1.75a.67.67,0,0,1-.12-.64.87.87,0,0,1,.45-.58.51.51,0,0,1,.31.06c.88.35,3.1,1.95,3.46,2a68.06,68.06,0,0,1,13.2,5.3c0,.05,0,.11,0,.16s0,.28-.05.42a6.92,6.92,0,0,0,.76,3.87C501.09,46,501.3,46.77,500.77,46.92Z"/><path class="cls-5" d="M458.69,16.33a7.92,7.92,0,0,1-2,1.74c-.21.13-.43.25-.65.35a4.42,4.42,0,0,1-2.27.49l-.16,0a8.13,8.13,0,0,0,1.4-1,24.33,24.33,0,0,0,4.32-5.43c1.34-2.13,1.57-4.75,1.76-7.26,0-.63,0-1.44-.53-1.73l-.13-.05,0,0A6,6,0,0,1,460.7,0a16.63,16.63,0,0,1,.88,3.15C462.3,7.3,461.47,13,458.69,16.33Z"/><path class="cls-5" d="M449.29,18.09a1.06,1.06,0,0,1,1-.45,20.37,20.37,0,0,1-.76-3.93c1.49.88.84,3.58,2.33,4.44A3.16,3.16,0,0,1,449.29,18.09Z"/><path class="cls-5" d="M506.68,20.47a6.66,6.66,0,0,1-4.58-.3c-.71-.32-1.43-1.21-.88-1.76a4.83,4.83,0,0,0,3.89,1.64C505.68,20,506.42,20,506.68,20.47Z"/><path class="cls-5" d="M420.36,12.12a8.54,8.54,0,0,1,2.77-.23,3.07,3.07,0,0,1,2.31,1.39,3.1,3.1,0,0,1-.42,3.28,8.73,8.73,0,0,1-2.73,2.15,2,2,0,0,1-1.19.39c-.42,0-.82-.49-.65-.88,1.16.48,2.37-.5,3.25-1.4A3.27,3.27,0,0,0,425,14.38a2.2,2.2,0,0,0-1.8-1.73,6.44,6.44,0,0,0-2.64.17Z"/><path class="cls-5" d="M439.43,12.34a19.12,19.12,0,0,0-3.18-1.67c.34-.52,1.15-.3,1.71,0a11.33,11.33,0,0,1,2.94,1.85,3.83,3.83,0,0,1,1.29,3.11c-.05.44.47.74.92.76a3.64,3.64,0,0,1,1.33.08c0,.44-.58.63-1,.61a2.11,2.11,0,0,0-1.29.11c-.44.29-.46.91-.6,1.41s-.72,1-1.13.69c.33-1.34,1.42-2.49,1.34-3.86S440.54,13.06,439.43,12.34Z"/><path class="cls-5" d="M429,22c.9,0,1.47,1,1.58,1.9a5.18,5.18,0,0,1-.89,3.6,2.8,2.8,0,0,1-1.49,1.16,1.49,1.49,0,0,1-1.68-.62,3,3,0,0,0,3.1-2.12A5,5,0,0,0,429,22Z"/><path class="cls-5" d="M399.94,17.78c-1,.17-1.71-1.11-1.79-2.16a3.14,3.14,0,0,1,.32-1.85,1.51,1.51,0,0,1,1.6-.76c.27.18-.12.53-.41.68a1.9,1.9,0,0,0-.78,2A5.56,5.56,0,0,0,399.94,17.78Z"/><path class="cls-5" d="M396.38,59.54c-.08.13-.07.18,0,.17S396.38,59.59,396.38,59.54Zm61.85-23.18a56,56,0,0,1-20.59-4.14c2.54,4,7.75,5,12.39,5.76a23.22,23.22,0,0,1-15.28-1.05,6.15,6.15,0,0,0-1.32-5.17,6.6,6.6,0,0,1-10.3,7.83,1.26,1.26,0,0,1-.27-1l.26-5.85a6.48,6.48,0,0,0,5,0,2,2,0,0,1,2.6,1.76,3.11,3.11,0,0,1-1.83,2.9,6.86,6.86,0,0,1-3.56.51,3.82,3.82,0,0,0,4.71-6A8.92,8.92,0,0,0,434.49,24c0-1.26,1.6-1.83,2.86-1.71s2.65.53,3.68-.2l-4.2-.69a43.21,43.21,0,0,1,9-.28A2.08,2.08,0,0,1,442.78,23c-.23.91,1.14,1.51,2,1.05a5.24,5.24,0,0,0,1.67-2.22c.46-.82,1.27-1.63,2.19-1.46,5.81,1,12.61-2.85,15.33-8.14.1-.2.2-.4.29-.6-.11.16-.23.33-.35.49a15.67,15.67,0,0,1-5.18,4.22A26.52,26.52,0,0,1,455,17.92a43.81,43.81,0,0,1-7.55,1.84c.6-1,.27-2.35.18-3.56s.31-2.71,1.49-3c4.73-1,9.29-5.35,11.43-9.75l.17-.36-.3.31c-1.39,1.47-3.06,3.8-4.4,5.13-2.19,2.18-5.26,4.53-8.06,3.22C446.23,11,445.38,9,444,7.71c-2-1.94-5-2.49-7.73-2.32s-5.46,1-8.21,1.31c-6.21.79-12.61-.67-18.75.57a33.31,33.31,0,0,1-12.88,0l1,2.93c-2.43.24-1.91,4.36-3.89,5.79a9.09,9.09,0,0,0-3.2,10c.4,1.21,1.08,2.5.6,3.68-1.76,4.35,1.25,9.69,5.6,11.44l.84,3.2A4.17,4.17,0,0,0,399,47.12c-3.93,1.92-4.11,2.21-7.53,4.93a6.62,6.62,0,0,0,1.64,2.18,2.26,2.26,0,0,0,2.56.24c3-2.09,2.93-1.52,6.52-2.28-.66,3.74-5.26,7.45-5.85,7.52A13.84,13.84,0,0,0,397.3,64a24.43,24.43,0,0,0,6.54-1.25,8.23,8.23,0,0,0,4.81-4.37c.44-1.12,1.82-1.44,2.95-1.85a9,9,0,0,0,3-1.87l.36-.36a8.82,8.82,0,0,0,1.69-2.54,9.63,9.63,0,0,1,1.15-2.35,1.91,1.91,0,0,1,2.32-.64A7.88,7.88,0,0,0,432,41.25c-.15-1.53,1.38-2.78,2.9-3a12.42,12.42,0,0,1,4.52.69,21.69,21.69,0,0,0,13.65-1.16l-8.6-1.7c-1.51-.3-3.26-.79-3.8-2.23a62.34,62.34,0,0,0,16,3.33m-34-29.8c.06.35-.25.64-.54.86a16.71,16.71,0,0,1-9.31,3.33A11.66,11.66,0,0,1,422.66,7.42Zm.09,1.5a1.23,1.23,0,0,1-.45.9v0l-.57-.13A1,1,0,0,1,422.75,8.92Zm-18.08-.24A82.37,82.37,0,0,1,416.44,7.5c-.35.88-1.34,1.29-2.2,1.68s-1.81,1-1.88,1.95c0,.4-.41.66-.75.86a3.22,3.22,0,0,1-2.25.66,3.23,3.23,0,0,1-1.09-.57l-4.22-3C404,8.86,404.39,8.73,404.66,8.68ZM390.77,24.53a9.12,9.12,0,0,1,3.53-8.22,2.53,2.53,0,0,1,.22,2.67c-.36.87-1,1.64-1.27,2.54a4.35,4.35,0,0,0,.65,4c.29.38.87.71,1.19.37a5.48,5.48,0,0,1-.31-6.21,6.94,6.94,0,0,1,1,2.29c.32.78,1,1.56,1.87,1.37a13.39,13.39,0,0,1-2.43-6.85,6.94,6.94,0,0,1,3.22-6.22l-1.16-2h1a3,3,0,0,1,1.59.32,1.11,1.11,0,0,1,.51,1.19,1.85,1.85,0,0,1,1.82-.69,5.16,5.16,0,0,1,2.05,1l3.85,2.68a1.21,1.21,0,0,1,.6.71,1.21,1.21,0,0,1-.08.54l-1.57,5.23a3.69,3.69,0,0,0-4.95.21,6.68,6.68,0,0,0-1.79,5,2.5,2.5,0,0,0-2.7,0,4.26,4.26,0,0,0-1.69,2.23,6.67,6.67,0,0,0,.21,5A9.12,9.12,0,0,1,390.77,24.53ZM420.9,37.24a2.22,2.22,0,0,1,1.16,1.09,1.27,1.27,0,0,1-.3,1.48,1.52,1.52,0,0,1-1.91-.33,5.21,5.21,0,0,1-1.09-3.17,1.52,1.52,0,0,1,0-.46c.13-.56.83-.72,1.4-.78a2.66,2.66,0,0,1,1.83.26c.51.37.57,1.34,0,1.54a2.78,2.78,0,0,0-3.08-.12A7.3,7.3,0,0,1,420.9,37.24Zm-2.1-3.5a1.05,1.05,0,0,1,.55-.61,2.91,2.91,0,0,1,2.14-.66c.75.18,1.17,1.35.5,1.72l-1.64.3a2.12,2.12,0,0,1-1,0A.73.73,0,0,1,418.79,33.74Zm3.54-2.9a3.16,3.16,0,0,1-.94.53l-2.83,1.22c-1.77.76-3.7,1.54-5.59,1.09a3.1,3.1,0,0,1-2.17-1.61,1.92,1.92,0,0,1,.72-2.44c1.49-.76,2.47-2.24,3.61-3.47s2.78-2.31,4.4-1.9,2.42,1.87,3,3.32C422.95,28.67,423.18,30.06,422.33,30.84Zm-9.92,7.24c-.1-.58-.16-1.31.34-1.62a9,9,0,0,1-1.59-2.78,6.09,6.09,0,0,1,3.9,2.2c.3.39,1,.13,1.21-.29s.31-.94.59-1.33,1-.56,1.21-.13a.82.82,0,0,1,.06.41,2.6,2.6,0,0,1-1.4,2.13c-1.22.62-2.7.17-4-.29a3.06,3.06,0,0,0,4.25,1c.33-.23.75-.54,1.07-.3a4.7,4.7,0,0,1-1.84,5.53c-1,.61-2.21.86-3,1.7a.42.42,0,0,1-.5-.06A25.5,25.5,0,0,0,412.42,38.09ZM414,26.44a20.37,20.37,0,0,1-3.7,3.23c-.68-.6-.34-1.61-.23-2.84-.9-1.89-1.49-3.93-.47-5.76a3.7,3.7,0,0,1,4.87-1.36,2.52,2.52,0,0,1,.91.85,2.8,2.8,0,0,1,.36,1.37A6.87,6.87,0,0,1,414,26.44Zm-4.71.79a3.46,3.46,0,0,1,.09,2,1.22,1.22,0,0,1-1.55.82l-3.41-1.69a6.34,6.34,0,0,1-2.34-1.64,4.58,4.58,0,0,1-.82-2.28,5.56,5.56,0,0,1,.6-3.41,3.45,3.45,0,0,1,2.85-1.77,2.85,2.85,0,0,1,1.62.51,5.58,5.58,0,0,1,1.81,3.2Q408.78,25.07,409.31,27.23Zm-5.86,22a1.91,1.91,0,0,1,.55-.33,5,5,0,0,1,2-.39,21.45,21.45,0,0,1-.76,5.27,1.48,1.48,0,0,1-1.39-.5,1.29,1.29,0,0,1,.41-2A1.24,1.24,0,0,1,403.45,49.19Zm.77-4.52a1.94,1.94,0,0,1,0-1.33,2.4,2.4,0,0,0,0-1.34l.59-.12a10.18,10.18,0,0,1,.54,3C405.07,45.27,404.44,45.08,404.23,44.68Zm-1-.5a3.59,3.59,0,0,1-2.17-2.65A10.71,10.71,0,0,1,401,38a1.11,1.11,0,0,1,.14-.5c.33-.5,1.09-.17,1.67,0a2.66,2.66,0,0,0,2.27-.3A21.55,21.55,0,0,0,403.23,44.18Zm0-7.43c-1.3-.09-2.74-1.12-2.5-2.4.43-.34,1.07,0,1.45.35s.74.89,1.29,1c.92.14,1.49-1,1.76-1.86.48-.06.83.5.82,1C406,36.07,404.5,36.83,403.22,36.75Zm-2.52-3.3a5.47,5.47,0,0,1-4-3.25,4.4,4.4,0,0,1,1.2-4.9,2.05,2.05,0,0,1,2.55.38c.69.63,1.13,1.5,1.78,2.17,1.39,1.44,3.51,1.81,5.3,2.71.49.24,1,.64,1,1.19,0,.7-.92,1-1.6,1.1C404.82,33.2,402.74,33.85,400.7,33.45Zm-4,1.32,1.59.21a3.07,3.07,0,0,1,1.4.42,1.06,1.06,0,0,1,.43,1.28l-2.37.14A1.33,1.33,0,0,1,396.74,34.77ZM396.49,32,400,34.17c-.06.27-.41.34-.68.34a4.84,4.84,0,0,1-1-.11,2.78,2.78,0,0,1-1.5-.77A1.47,1.47,0,0,1,396.49,32Zm-4.57,4.32a7,7,0,0,1-.18-6.57,6,6,0,0,1,4,6.73,3.12,3.12,0,0,1-2-2.64c-.79.3-.48,1.55.18,2.08s1.57.9,1.79,1.72l.85,3.2C394.85,39.53,392.85,38.2,391.92,36.36Zm5.13,3.23a1.11,1.11,0,0,1-.26-1.7,2.28,2.28,0,0,1,1.36-.23c.83,0,1.94-.24,2.24.53s-.62,1.34-1.37,1.52A2.6,2.6,0,0,1,397.05,39.6Zm.6,1.08,1.49-.29a1.14,1.14,0,0,1,.48,0,.8.8,0,0,1,.53.68,1.32,1.32,0,1,1-2.5-.37Zm-2.57,11.68a2.48,2.48,0,0,0,.3.28c.49.5-.21,1.42-.9,1.32a2,2,0,0,1-1.41-1.42.89.89,0,0,1-.08-.38,1,1,0,0,1,.45-.62c2.75-2.12,2.15-1.95,5.23-3.55.43-.22,1-.42,1.34-.07-2.13,2.35-1.25,2.15-4.18,3.37C395.36,51.48,394.79,51.94,395.07,52.36Zm6.56-1.42c-.16.31-.56.39-.91.43a15.83,15.83,0,0,0-3.14,1.37c-1.17.57,1.19-.91,0-.34a1.69,1.69,0,0,1-1,.25c-.34-.06-.64-.42-.5-.73l1.21-.86,2.53-2a1.37,1.37,0,0,1,.56-.32c.75-.16,1.16.84,1.26,1.59A1.11,1.11,0,0,1,401.63,50.94Zm-2.82-5.07c-.43-.37-.86-.92-.66-1.44a2.08,2.08,0,0,1,3.83-.14c-.07.62-1,.66-1.53.36s-1.11-.77-1.7-.6a2.9,2.9,0,0,0,3.9,1,.46.46,0,0,1,.61.26,1.33,1.33,0,0,1,0,.74l-.19,1.29a.65.65,0,0,1-.21.47.64.64,0,0,1-.54,0A10.28,10.28,0,0,1,398.82,45.87ZM403.13,53c.58.62.56.93,1.14,1.55a1.43,1.43,0,0,1,.38.59,1.26,1.26,0,0,1-.14.77,6.19,6.19,0,0,1-3.55,3.3c-.85.31-2,.29-2.4-.53C400.87,57.69,403.09,55.56,403.13,53Zm-5.29,6.66c2.18,1.22,5.08,0,6.55-2s1.88-4.6,2.25-7.07l.63-4.25a21.71,21.71,0,0,1-2.06-5.06,4.31,4.31,0,0,1-.19-1.47c.17-2,2.76-3.27,2.7-5.3l-.63.4c-.58-.08-.6-1.05-.08-1.31a1.19,1.19,0,0,1,1.45.62,3.49,3.49,0,0,1,.26,1.71l-.2,11.18c-.06,3.37-.16,6.87-1.7,9.87s-5,5.3-8.23,4.38a1.66,1.66,0,0,1-1-.63A.71.71,0,0,1,397.84,59.69Zm10.74-2.53c-1.27,2.11-2.72,4.38-5.06,5.16-1.93.65-4.13.14-6,.88-.31-.54.24-1.23.84-1.36a5.15,5.15,0,0,1,1.85.18c3.09.49,5.9-2,7.3-4.83,3.33-6.66,1.38-14.61,2-22,0-.46.27-1.08.73-1a15.11,15.11,0,0,1,1.28,11.37,13.43,13.43,0,0,0-.6,2.38c-.09,1,.12,2,.11,2.95C411,53.13,409.76,55.2,408.58,57.16Zm7.87-6.66a9.79,9.79,0,0,1-6.3,5.84c.94-2,1.91-4.21,1.7-6.45a1.82,1.82,0,0,1,0-.87.52.52,0,0,1,.71-.29,5.69,5.69,0,0,0,3.6,1C416.54,49.67,416.57,50.18,416.45,50.5Zm-4-2.64a1,1,0,0,1-.44-.39c-.17-.34,0-.74.23-1.07a4,4,0,0,1,1.28-1.47,1.39,1.39,0,0,1,1.79.21A4.18,4.18,0,0,0,417.55,47c.79.18,1.7-.11,2.39.33A6.93,6.93,0,0,1,412.46,47.86Zm6-1.34c-1.23-.15-2-1.37-3-2.07a.8.8,0,0,1,.1-.71c.76-.35,1.56.34,2.12,1s1.39,1.29,2.12.89a4.2,4.2,0,0,0-1.27-1,2.23,2.23,0,0,1-1.05-1.23c-.13-.54.26-1.21.81-1.16l2.19,1.69A2,2,0,0,1,418.49,46.52Zm1.56-3.92a2.57,2.57,0,0,1-1.27-1.14,1.22,1.22,0,0,1,.38-1.54c.52.47,1.27.62,1.82,1s.79,1.44.15,1.75A1.18,1.18,0,0,1,420.05,42.6Zm11.26-1.53c.45.34.36,1,.19,1.56a13,13,0,0,1-2.14,4.06c-.39.5-1.12,1-1.6.59a4.55,4.55,0,0,1-5.95,1.51c-.61-.36-1.19-1.12-.82-1.73.22-.36.75-.73.5-1.07a2.1,2.1,0,0,1,0-1.88l1.33-4A7.62,7.62,0,0,0,431.31,41.07Zm15.54-22.48a2.33,2.33,0,0,1-.58,1.3,2.35,2.35,0,0,1-1.62.39l-7.53,0a5.58,5.58,0,0,0-.36-4.71,21.33,21.33,0,0,1-.53,4.16,2.91,2.91,0,0,1-.77,1.6,1.11,1.11,0,0,1-1.6-.06c-.78-1.19,1.94-2.85.88-3.8a3.39,3.39,0,0,1-2.53,2.22,8.26,8.26,0,0,1-.27,9.56,8.27,8.27,0,0,1-9.22,2.52,5.26,5.26,0,0,0-6.31-7.88,3.92,3.92,0,0,0-6.62-4c-.33.39-.74.92-1.23.76s-.52-.84-.46-1.35c.26-1.95.6-4.07,2.07-5.39a8,8,0,0,1,3.49-1.55q4.27-1.09,8.62-1.81c2.42-.39,5.55-.33,6.5,1.92a4.07,4.07,0,0,0-4.2-3.1c-.53,0-.75-.77-.4-1.18a2.06,2.06,0,0,1,1.47-.51l2.94-.21c0,.31.06.62.08.94A18,18,0,0,1,437.08,6a9.58,9.58,0,0,1,7.69,3.63,6.56,6.56,0,0,0-3.6-.14c.8.82,2.14.64,3.27.87s2.22,1.69,1.32,2.42C447.52,13.94,447.29,16.54,446.85,18.59Zm-.21-6.69.74-.38,0,.1,1,1a.75.75,0,0,1-1.06.24A2.09,2.09,0,0,1,446.64,11.9Zm5.62,7.76c-.21-.14.09-.44.34-.49l1.16-.25,2.27-.49,1.34-.29A7.48,7.48,0,0,1,452.26,19.66Z"/><path class="cls-6" d="M428.24,46.4h0"/><path class="cls-6" d="M428.24,46.4h0"/><path class="cls-5" d="M422.22,44.51a3.26,3.26,0,0,0,4.6-.7c.24-.36.73-.82,1-.47A4,4,0,0,1,424,46C423.11,46,422.06,45.38,422.22,44.51Z"/><path class="cls-6" d="M421,60.32l.08,0"/><path class="cls-5" d="M426,58.78l-5,1.43c.19,0,.25-.29.09-.4a.64.64,0,0,0-.55,0L410.94,63a6.9,6.9,0,0,1,3.37-1.84q4.87-1.54,9.81-2.8C424.82,58.17,425.77,58.11,426,58.78Z"/></g><path class="cls-5" d="M422.36,55.75l-1.58.91-.76-.24L414.6,54.7,414,54.5s.57.11.68-.23l.3.06,6.74,1.29Z"/><path class="cls-5" d="M479.5,31.73A17.2,17.2,0,0,1,478,36.11a23.1,23.1,0,0,1-1.83,3q-.26.37-.55.73l-.08.11.06-.11q.22-.4.43-.8c.18-.35.36-.7.53-1.05.34-.7.65-1.41.92-2.12.12-.29.22-.59.33-.88l0,0q.25-.72.44-1.44v0c.12-.45.22-.9.3-1.35,0-.19.06-.37.09-.55a11.49,11.49,0,0,0,.08-2.17,6.93,6.93,0,0,0-.46-2.06,5.74,5.74,0,0,0-.87-1.52l-.21-.25-.19-.2a7.09,7.09,0,0,0-1.44-1.12,12.67,12.67,0,0,0-4.08-1.49,28.91,28.91,0,0,0-4.44-.52,15,15,0,0,0-2.21,0,19.05,19.05,0,0,0-2.2.41,18.28,18.28,0,0,1-2.64.37h0c-.64,0-1.28.06-1.92,0a27,27,0,0,0,4.08-.84h0l.34-.11a18.6,18.6,0,0,1,2.24-.6,14.26,14.26,0,0,1,2.33-.19,25.46,25.46,0,0,1,4.63.36q.7.13,1.4.31c.42.11.83.24,1.24.39a11.21,11.21,0,0,1,1.82.86A8.22,8.22,0,0,1,478,24.86l.06.08a6.38,6.38,0,0,1,.41.55,6.2,6.2,0,0,1,.78,1.5A9,9,0,0,1,479.5,31.73Z"/><path class="cls-7" d="M391,58.88c-1.92-.82-5.74-3.8-6.66-5.81s-3.43-8.49-9.75-10.23-16.9,1.24-18.51,7.81c-2.1,8.59,3.27,13.79,10.55,15.78,7.76,2.12,15.72-4.29,17.32-5.35C385.9,59.76,391,58.88,391,58.88Z"/><path class="cls-8" d="M362.23,48.11a.74.74,0,0,1-.56-1.21c.11-.13,2.71-3.17,8-2.83a.74.74,0,1,1-.09,1.47c-4.6-.29-6.8,2.28-6.82,2.31A.73.73,0,0,1,362.23,48.11Z"/><path class="cls-8" d="M371.82,44.5h0l-.1,0h-.14a.74.74,0,0,0-.73.71.77.77,0,0,0,.64.75h0l.1,0h.14a.74.74,0,0,0,.73-.71A.77.77,0,0,0,371.82,44.5Z"/></g></g></svg>