<svg xmlns="http://www.w3.org/2000/svg" viewBox="0 0 48.25 48.25"><defs><style>.cls-1{fill:#fff;}.cls-2{fill:#e4da7c;}</style></defs><title>アセット 10</title><g id="レイヤー_2" data-name="レイヤー 2"><g id="レイヤー_1-2" data-name="レイヤー 1"><polygon class="cls-1" points="0 48.25 0 0 48.25 0 0 48.25"/><path class="cls-2" d="M16.74,22.89H14L8.69,15v7.88H6.11v-12H8.83l5.33,7.9v-7.9h2.58Z"/><path class="cls-2" d="M26.93,19.48H21.29A1.74,1.74,0,0,0,23,21.07a2,2,0,0,0,1.84-1l1.59,1.46A3.86,3.86,0,0,1,23,23,3.91,3.91,0,0,1,18.84,19a3.85,3.85,0,0,1,4-4.08A3.85,3.85,0,0,1,26.93,19ZM24.44,18a1.39,1.39,0,0,0-1.57-1.15A1.43,1.43,0,0,0,21.34,18Z"/><path class="cls-2" d="M39.5,15l-3,7.91H34.93l-1.47-3.83c-.49,1.33-1,2.58-1.44,3.83H30.45l-3-7.91h2.43l1.38,4.36L32.6,15h1.75l1.36,4.37L37.08,15Z"/><rect class="cls-2" x="6.25" y="27.5" width="33" height="5.5"/></g></g></svg>