<svg xmlns="http://www.w3.org/2000/svg" xmlns:xlink="http://www.w3.org/1999/xlink" viewBox="0 0 263.95 119.61"><defs><style>.cls-1{fill:#080103;}.cls-2{fill:#e3a57a;}.cls-3{fill:none;}.cls-4{fill:url(#名称未設定グラデーション_15);}.cls-5{fill:#fff;}</style><linearGradient id="名称未設定グラデーション_15" x1="7.94" y1="69.62" x2="26.64" y2="107.48" gradientTransform="translate(20.02 6.6) rotate(6.2)" gradientUnits="userSpaceOnUse"><stop offset="0" stop-color="#f3a16a"/><stop offset="1" stop-color="#b7b3b0"/></linearGradient></defs><title>アセット 11</title><g id="レイヤー_2" data-name="レイヤー 2"><g id="レイヤー_1-2" data-name="レイヤー 1"><path class="cls-1" d="M64.27,101.19c-.13,0-.15-.08,0-.29C64.26,101,64.26,101.09,64.27,101.19Z"/><path class="cls-1" d="M135,95.62a1.12,1.12,0,0,1-.31.07Z"/><path class="cls-1" d="M261.28,23.76l1-.32c.11.58-.38,1.07-.81,1.48a12.49,12.49,0,0,0-3.17,5c-.79,2.36-3.25,3.7-5.55,4.67-3.75,1.58-7.84,2.83-11.84,2.08-3.69-.7-6.19-3.8-8.81-7.51-3.66.5-8.2,1.84-10.69,4,4.39,1.65,6,7.71,3.79,11.85s-7.2,6.25-11.89,6.08a27.52,27.52,0,0,1-1.45,6c1.49.59,5.25,3.3,5.86,3.47a115.35,115.35,0,0,1,22.37,9c0,.09,0,.18,0,.27a9.06,9.06,0,0,1,5,4.91A25.13,25.13,0,0,1,246.79,83l-27.61-7.94c-1.5,4.54.3,9.45,2.06,13.9l7.32,18.42c1.69,4.26-1.55,8.76-4.57,12.2L211.18,95.67c-.61-1.15-1.91-2.49-3-1.72-7.54,5.46-18,7.57-26.33,3.36-8-4.07-12.27-17.42-8.07-25.44-9.86,8.79-23,12.63-36.2,11.72l-3.91,7.36a5.33,5.33,0,0,0-.89,3,2,2,0,0,0,1.85,1.76,9.45,9.45,0,0,0-6.85,6.37,7.93,7.93,0,0,1,5-1.76c-3,3.4-8.14,3.36-12.65,3.49a71.09,71.09,0,0,0-27,6.19c-2.1.94-4.26,2-6.55,1.94s-4.74-1.78-4.7-4.07A217.49,217.49,0,0,1,104.32,95.6l-9.18-2.9A15.1,15.1,0,0,1,90,95.87c-1.91.7-4.24,1.25-5,3.14-1.39,3.51-4.64,6-8.15,7.4s-7.33,1.75-11.09,2.12a23.49,23.49,0,0,1-1.54-7.34c1-.11,8.8-6.4,9.92-12.74-6.09,1.3-5.94.32-11.05,3.86a3.82,3.82,0,0,1-4.34-.41A11.21,11.21,0,0,1,56,88.21c5.79-4.62,6.1-5.11,12.75-8.36-1.65-.9-2.27-2.91-2.75-4.72l-1.43-5.41c-7.38-3-12.47-12-9.5-19.39.81-2-.33-4.19-1-6.24a15.41,15.41,0,0,1,5.42-16.9c3.35-2.42,2.47-9.4,6.59-9.81l-1.73-5a56.39,56.39,0,0,0,21.84-.08c10.41-2.11,21.24.37,31.77-1,4.66-.59,9.22-1.93,13.91-2.22s9.74.64,13.11,3.92c2.32,2.26,3.76,5.55,6.69,6.92,4.74,2.23,9.93-1.76,13.65-5.45,2.27-2.25,5.12-6.21,7.46-8.7l-.08,0c-.2-2-.37-4.07.56-5.81a28.19,28.19,0,0,1,1.48,5.33c1.23,7-.18,16.7-4.9,22.34a26.57,26.57,0,0,0,8.79-7.15c-.2-.34-.42-.68-.59-1-.51-1-.44-2.57.64-2.76,2.17,2.84,1.92,7,.15,10.12s-4.79,5.3-7.91,7a47,47,0,0,1-8.58,3.71,57.8,57.8,0,0,0,13.33.15h0l.58-.18a31.53,31.53,0,0,1,3.79-1,24.16,24.16,0,0,1,4-.33,43.14,43.14,0,0,1,7.84.6q1.19.22,2.37.53c3.77-2.79,9.45-3.3,14.09-2.82A25.47,25.47,0,0,1,227,22.66c1.74-.19,3.69-.29,4.86-1.59,3-3.34,8.21-3.29,12.67-2.76s9.45,1.14,13.07-1.54a4.22,4.22,0,0,1,6.22,2A4.26,4.26,0,0,1,261.28,23.76Z"/><g id="シェイプ_16" data-name="シェイプ 16"><path class="cls-2" d="M198.46,67.57l-.11.19.14-.18Zm19.21-28.5a3.56,3.56,0,0,1,.22-3.41c-.68-.37-1.55.26-1.72,1a3.8,3.8,0,0,0,.42,2.23l1.6,3.92a1.06,1.06,0,0,0,.89.17,1.66,1.66,0,0,1,.64-1A10.61,10.61,0,0,1,217.67,39.07Zm-1.15,23a4.72,4.72,0,0,0-1.41.27,32.93,32.93,0,0,1-4.28-3.23q-1.19-.67-2.37-1.37c-1.73,1.72-2.25,4.3-3.55,6.35-1.16,1.83-3.71,3.21-5.49,2.28l-.23-.13q-.36.68-.74,1.36l-.11.19.14-.18a2.05,2.05,0,0,1,.59.22,4.55,4.55,0,0,0,3.07.23A17.66,17.66,0,0,0,213,61.24a16.78,16.78,0,0,0,5.7,2.77,1,1,0,0,1,.49,1.37A2.9,2.9,0,0,1,218,66.52L214.17,69c-2.54,1.67-5.33,3.4-8.36,3.18a7.09,7.09,0,0,1-5.44-3.34l-3.81.92c-.35.54-.7,1-1,1.51a5.34,5.34,0,0,1,4.59-.49c1,.4,1.9,1.1,2.88,1.58,2.73,1.36,6.09,1,8.85-.35a30.59,30.59,0,0,0,7.33-5.45c3.4-3.1,9,3.74,13,1.44A101.05,101.05,0,0,1,216.52,62Zm-11.18,3.49q1-1.85,2-3.64a4.33,4.33,0,0,1,1.69-1.84,1.57,1.57,0,0,1,2.14.67A8.74,8.74,0,0,1,205.34,65.53ZM216.52,62a4.72,4.72,0,0,0-1.41.27,32.93,32.93,0,0,1-4.28-3.23q-1.19-.67-2.37-1.37c-1.73,1.72-2.25,4.3-3.55,6.35-1.16,1.83-3.71,3.21-5.49,2.28l-.23-.13q-.36.68-.74,1.36l-.11.19.14-.18a2.05,2.05,0,0,1,.59.22,4.55,4.55,0,0,0,3.07.23A17.66,17.66,0,0,0,213,61.24a16.78,16.78,0,0,0,5.7,2.77,1,1,0,0,1,.49,1.37A2.9,2.9,0,0,1,218,66.52L214.17,69c-2.54,1.67-5.33,3.4-8.36,3.18a7.09,7.09,0,0,1-5.44-3.34l-3.81.92c-.35.54-.7,1-1,1.51a5.34,5.34,0,0,1,4.59-.49c1,.4,1.9,1.1,2.88,1.58,2.73,1.36,6.09,1,8.85-.35a30.59,30.59,0,0,0,7.33-5.45c3.4-3.1,9,3.74,13,1.44A101.05,101.05,0,0,1,216.52,62Zm-11.18,3.49q1-1.85,2-3.64a4.33,4.33,0,0,1,1.69-1.84,1.57,1.57,0,0,1,2.14.67A8.74,8.74,0,0,1,205.34,65.53Zm58.45-46.78a4.22,4.22,0,0,0-6.22-2c-3.62,2.68-8.6,2.06-13.07,1.54s-9.65-.58-12.67,2.76c-1.17,1.3-3.12,1.4-4.86,1.59a25.47,25.47,0,0,0-18.65,11.88c-4.65-.48-10.33,0-14.09,2.82-.28.2-.54.42-.79.64a23.37,23.37,0,0,1,2.3,1.63c-.17-.85-1.2-.92-.13-1.34l.72-.27c5.88-2.16,10-2.88,11-2a3.59,3.59,0,0,1-.33,2.08c-.38.61-.3,2.17-.9,3-1.2-.36-2.29.49-3.45,1.11a5.14,5.14,0,0,1-1.12.47,2.54,2.54,0,0,0-.71.31l.32.33c.12.14.24.28.35.43l1.86-.61,3.85-1.27c-1.88,3.54,5.35,6.34,4.71,10.3-.23,1.41-1.38,4-1.31,5.79a2.21,2.21,0,0,0,.25,1,7.46,7.46,0,0,0,1-1.88,27.52,27.52,0,0,0,1.45-6c4.69.17,9.68-1.94,11.89-6.08s.6-10.2-3.79-11.85c2.49-2.16,7-3.5,10.69-4,.61-.09,1.18-.15,1.73-.18a5.55,5.55,0,0,0-2.37-.72h0c-3.08-.31-7.08,1.1-9.38,2.56-2.5,1.58-5.12,3.31-6.37,6s-.36,6.56,2.47,7.42c1.28.39,2.4-1.15,2.36-2.49s-.74-2.56-.94-3.88.45-3,1.78-3.08a8.28,8.28,0,0,1,1.48,11.55,8.83,8.83,0,0,1-11.75,1.27,9.46,9.46,0,0,1-2.34-11.75A18.69,18.69,0,0,1,213,31.21c4.21-3.72,9.07-7.57,14.69-7.36,1.88.07,4.27.38,5.18-1.27,1.21-2.19,3.85-3.23,6.34-3.36s5,.45,7.46.71a27.8,27.8,0,0,0,15.24-2.82A6.29,6.29,0,0,1,260,24a3.24,3.24,0,0,0,.7-.08h0a2.75,2.75,0,0,0,.54-.16l0,0A4.26,4.26,0,0,0,263.78,18.75ZM215.11,62.31a32.93,32.93,0,0,1-4.28-3.23q-1.19-.67-2.37-1.37c-1.73,1.72-2.25,4.3-3.55,6.35-1.16,1.83-3.71,3.21-5.49,2.28l-.23-.13q-.36.68-.74,1.36l-.11.19.14-.18a2.05,2.05,0,0,1,.59.22,4.55,4.55,0,0,0,3.07.23A17.66,17.66,0,0,0,213,61.24a16.78,16.78,0,0,0,5.7,2.77,1,1,0,0,1,.49,1.37A2.9,2.9,0,0,1,218,66.52L214.17,69c-2.54,1.67-5.33,3.4-8.36,3.18a7.09,7.09,0,0,1-5.44-3.34l-3.81.92c-.35.54-.7,1-1,1.51a5.34,5.34,0,0,1,4.59-.49c1,.4,1.9,1.1,2.88,1.58,2.73,1.36,6.09,1,8.85-.35a30.59,30.59,0,0,0,7.33-5.45c3.4-3.1,9,3.74,13,1.44a101.05,101.05,0,0,1-15.65-6A4.72,4.72,0,0,0,215.11,62.31Zm-9.77,3.22q1-1.85,2-3.64a4.33,4.33,0,0,1,1.69-1.84,1.57,1.57,0,0,1,2.14.67A8.74,8.74,0,0,1,205.34,65.53Z"/><path class="cls-2" d="M173.95,71.61c-3.45,1.6-6.58,2.46-10.06,4.1a84.11,84.11,0,0,1-12.55,5.11,42,42,0,0,1-10.77,1.62,4.45,4.45,0,0,1-3.19-.82,4.28,4.28,0,0,1-1-2.12,25.69,25.69,0,0,1-.53-10l-2.28,5.75c1.5,1.69,1.33,8.27.36,8.82a23.59,23.59,0,0,1-16.8,2.48c-1.88-.43-4.71-.46-4.81,1.46-.15,2.9-6.85,1-6.78,3.93a35.4,35.4,0,0,1,23.73,4.53,5.61,5.61,0,0,1-10.17,3.18A12.51,12.51,0,0,0,110,94.52l1.67-2.24q-2.25,1-4.49,2c-1,.44-1.92.88-2.87,1.33A217.49,217.49,0,0,0,82,107.85c0,2.3,2.4,4,4.7,4.07s4.46-1,6.55-1.94a71.09,71.09,0,0,1,27-6.19c4.51-.13,9.68-.1,12.65-3.49a7.93,7.93,0,0,0-5,1.76,9.45,9.45,0,0,1,6.85-6.37,2,2,0,0,1-1.85-1.76,5.33,5.33,0,0,1,.89-3l3.91-7.36c13.2.91,26.34-2.93,36.2-11.72l.44-.39Zm-63.56,31.45a41.05,41.05,0,0,1-4.2,1.23c-2.66.43-5.67-.38-7.9,1.14-1,.67-1.7,1.75-2.81,2.17a22.82,22.82,0,0,1-3,.43c-1.43.34-2.52,1.48-3.83,2.17s-3.29.66-3.87-.69c-.68-1.57,1.11-3,2.63-3.82L102.31,98c2.81-1.45,5.93-3,9-2.22,2.14.51,3.87,2,5.51,3.47L121,103C117.48,102.53,113.83,102.12,110.39,103.06ZM114.53,90c-.53-.07-1-.58-.89-1.09a1.19,1.19,0,0,1,.47-.58,4,4,0,0,1,3.9-.48,3.51,3.51,0,0,1-2,1.72A2.82,2.82,0,0,1,114.53,90Zm17.39,2.59a3.55,3.55,0,0,1-1.22,1.55,3.5,3.5,0,0,1-2.53.1,44.89,44.89,0,0,1-11-4,2.65,2.65,0,0,1,2.39-2,13.09,13.09,0,0,1,3.31.28,12.53,12.53,0,0,0,6.34-.86c2-.84,3.87-2.22,6-2.44Q133.75,88.95,131.92,92.55Zm2.75,3.14a1.12,1.12,0,0,0,.31-.07Z"/><path class="cls-2" d="M221.25,89c-1.77-4.45-3.56-9.36-2.06-13.9L246.79,83a25.13,25.13,0,0,0-1.66-8.27,9.06,9.06,0,0,0-5-4.91l-.09.71A17.58,17.58,0,0,1,244.92,79a2,2,0,0,1,0,1.45c-.47.81-1.67.62-2.56.33l-18.85-6.27a8,8,0,0,0-3.73-.61,2.77,2.77,0,0,0-2.47,2.48c.07,4.91-4.68,8.59-9.4,10-4,1.2-8.63,1.27-12.23-.92s-5.69-7.07-3.83-10.85l-3.13,4.62A16.32,16.32,0,0,0,217.22,81,109.63,109.63,0,0,0,224,98.68a9.06,9.06,0,0,1-3.5,11.4L210.19,90.73c-6.26,5.27-14.57,8.75-22.6,7.25s-15.1-9.13-14.08-17.24c.3-2.34,1.42-7.4.74-9.66-.11.17-.21.35-.31.53l-.14.25c-4.2,8,0,21.37,8.07,25.44,8.31,4.21,18.79,2.11,26.33-3.36,1.05-.76,2.35.57,3,1.72L224,119.61c3-3.44,6.26-7.94,4.57-12.2Zm6.06,22.65-2.73,5.87-2.25-3.84a3,3,0,0,1,.62-4.41l2.93-3.39a13.17,13.17,0,0,1,1.76,4.3A2.44,2.44,0,0,1,227.3,111.63Z"/><path class="cls-2" d="M172,39.12h0a29.8,29.8,0,0,1-4.2.28l-9.56-.15c-.76,0-1.64-.09-2-.74a53.41,53.41,0,0,0,13.7-5.42c4.21-2.39,8.39-5.79,9.27-10.55a2.73,2.73,0,0,0-.45-1.82l-.11-.19c-.2-.34-.42-.68-.59-1-.51-1-.44-2.57.64-2.76,2.17,2.84,1.92,7,.15,10.12s-4.79,5.3-7.91,7a47,47,0,0,1-8.58,3.71,57.8,57.8,0,0,0,13.33.15h0a57.44,57.44,0,0,0,8.1-1.43A64.52,64.52,0,0,1,172,39.12Z"/><path class="cls-2" d="M261.52,24.93a12.49,12.49,0,0,0-3.17,5c-.79,2.36-3.25,3.7-5.55,4.67-3.75,1.58-7.84,2.83-11.84,2.08-3.69-.7-6.19-3.8-8.81-7.51l-.64-.91h0l0,0C236,28.9,235,30.72,235.8,32a8,8,0,0,0,5.58,3.39,23.54,23.54,0,0,0,6.7-.16l.34-.05a3.56,3.56,0,0,0,2.1-1,1.13,1.13,0,0,0,.21-1,8.31,8.31,0,0,0,6.89-3.65c-2.78,1.4-5.85,2.84-8.88,2.13l6.95-2.42a6.16,6.16,0,0,0,2.21-1.13,2.09,2.09,0,0,0,.65-2.25l-8.65,2.48a21.38,21.38,0,0,1-4.39.93,10.81,10.81,0,0,1-8-2.81c1.09-.73,2.45.26,3.65.8,1.86.82,4,.49,6,.09Q254,25.95,260.65,24h0l.54-.16,0,0,1-.32C262.44,24,261.94,24.52,261.52,24.93Z"/><path class="cls-2" d="M241.17,79.52a14.26,14.26,0,0,1-2.51-6.81,5.6,5.6,0,0,0-.53-2.4,4.59,4.59,0,0,0-2.21-1.57q-7.54-3.31-15.36-5.91a11.57,11.57,0,0,0-4-.79q-2.89-1.39-5.69-3a1.13,1.13,0,0,1-.2-1.08,1.47,1.47,0,0,1,.76-1,.86.86,0,0,1,.53.1c1.49.59,5.25,3.3,5.86,3.47a115.35,115.35,0,0,1,22.37,9c0,.09,0,.18,0,.27s-.07.47-.09.71a11.73,11.73,0,0,0,1.28,6.56C241.72,77.93,242.07,79.26,241.17,79.52Z"/><path class="cls-2" d="M169.85,27.67a13.42,13.42,0,0,1-3.39,3c-.36.21-.73.42-1.11.6a7.5,7.5,0,0,1-3.85.84l-.26,0a13.77,13.77,0,0,0,2.37-1.66c2.91-2.48,5.42-6.21,7.31-9.21,2.28-3.6,2.66-8.05,3-12.31.08-1.07,0-2.44-.9-2.93l-.22-.09-.08,0c-.2-2-.37-4.07.56-5.81a28.19,28.19,0,0,1,1.48,5.33C176,12.37,174.56,22,169.85,27.67Z"/><path class="cls-2" d="M153.93,30.65a1.8,1.8,0,0,1,1.71-.77,34.52,34.52,0,0,1-1.28-6.66c2.52,1.49,1.42,6.07,4,7.53A5.35,5.35,0,0,1,153.93,30.65Z"/><path class="cls-2" d="M251.18,34.7a11.29,11.29,0,0,1-7.76-.51c-1.2-.54-2.42-2.05-1.49-3a8.18,8.18,0,0,0,6.6,2.78C249.5,33.92,250.75,33.82,251.18,34.7Z"/><path class="cls-2" d="M104.9,20.54a14.47,14.47,0,0,1,4.7-.4,5.2,5.2,0,0,1,3.91,2.36,5.26,5.26,0,0,1-.71,5.56,14.8,14.8,0,0,1-4.63,3.64,3.46,3.46,0,0,1-2,.66c-.72-.08-1.39-.83-1.11-1.49,2,.81,4-.85,5.5-2.38,1.12-1.15,2.32-2.53,2.14-4.12a3.72,3.72,0,0,0-3.05-2.92,10.92,10.92,0,0,0-4.47.3Z"/><path class="cls-2" d="M137.22,20.91a32.4,32.4,0,0,0-5.38-2.83c.58-.88,1.94-.51,2.89,0a19.2,19.2,0,0,1,5,3.13,6.49,6.49,0,0,1,2.18,5.26c-.09.75.8,1.25,1.55,1.28a6.17,6.17,0,0,1,2.25.14c-.05.74-1,1.06-1.73,1a3.58,3.58,0,0,0-2.18.18c-.74.49-.78,1.54-1,2.39s-1.22,1.73-1.91,1.17c.56-2.26,2.4-4.22,2.28-6.55S139.1,22.14,137.22,20.91Z"/><path class="cls-2" d="M119.62,37.3c1.53,0,2.49,1.71,2.68,3.23a8.77,8.77,0,0,1-1.52,6.11,4.74,4.74,0,0,1-2.52,2,2.52,2.52,0,0,1-2.84-1c2.28.39,4.55-1.39,5.25-3.59A8.54,8.54,0,0,0,119.62,37.3Z"/><path class="cls-2" d="M70.29,30.12c-1.76.28-2.9-1.88-3-3.66a5.32,5.32,0,0,1,.54-3.14A2.56,2.56,0,0,1,70.52,22c.46.3-.21.89-.69,1.15a3.22,3.22,0,0,0-1.32,3.44A9.42,9.42,0,0,0,70.29,30.12Z"/><path class="cls-2" d="M64.26,100.9c-.13.21-.12.3,0,.29S64.26,101,64.26,100.9ZM169.08,61.62a95,95,0,0,1-34.9-7c4.3,6.71,13.13,8.54,21,9.77a39.35,39.35,0,0,1-25.9-1.78A10.43,10.43,0,0,0,127,53.83,11.19,11.19,0,0,1,109.59,67.1a2.14,2.14,0,0,1-.46-1.77l.45-9.92a11,11,0,0,0,8.43,0c1.89-.8,4.19.93,4.4,3a5.27,5.27,0,0,1-3.1,4.92,11.62,11.62,0,0,1-6,.87,6.47,6.47,0,0,0,8-10.18,15.11,15.11,0,0,0,7.58-13.36c-.06-2.14,2.72-3.11,4.84-2.89s4.5.89,6.24-.34l-7.13-1.16a73.23,73.23,0,0,1,15.28-.47c.33,2.53-3.06,4.63-5.18,3.21-.39,1.55,1.92,2.55,3.32,1.79s2-2.38,2.83-3.76,2.15-2.76,3.72-2.48c9.84,1.77,21.37-4.83,26-13.79.17-.33.34-.67.49-1-.19.28-.39.56-.6.83a26.56,26.56,0,0,1-8.79,7.15,44.94,44.94,0,0,1-6.24,2.7,74.25,74.25,0,0,1-12.79,3.12c1-1.78.46-4,.3-6s.52-4.59,2.52-5c8-1.66,15.75-9.07,19.36-16.53q.15-.31.28-.61l-.5.52c-2.35,2.49-5.19,6.45-7.46,8.7-3.72,3.69-8.91,7.68-13.65,5.45-2.93-1.37-4.37-4.66-6.69-6.92-3.36-3.28-8.42-4.21-13.1-3.92s-9.25,1.63-13.91,2.22c-10.53,1.34-21.36-1.14-31.77,1a56.45,56.45,0,0,1-21.84.08l1.73,5c-4.11.41-3.24,7.39-6.59,9.81a15.41,15.41,0,0,0-5.42,16.9c.68,2,1.83,4.23,1,6.24-3,7.37,2.11,16.43,9.49,19.38q.71,2.71,1.43,5.42c.48,1.81,1.11,3.82,2.76,4.72-6.66,3.25-7,3.74-12.76,8.36a11.21,11.21,0,0,0,2.77,3.7,3.82,3.82,0,0,0,4.34.4c5.12-3.54,5-2.57,11.06-3.86-1.11,6.34-8.91,12.63-9.92,12.74a23.45,23.45,0,0,0,1.54,7.35c3.76-.37,7.57-.75,11.09-2.12s6.77-3.88,8.15-7.4c.75-1.89,3.08-2.44,5-3.14a15.19,15.19,0,0,0,5.1-3.17l.62-.62a14.94,14.94,0,0,0,2.86-4.3,16.32,16.32,0,0,1,1.94-4c.94-1.14,2.65-1.85,3.92-1.09a13.35,13.35,0,0,0,20.13-12.8c-.26-2.59,2.33-4.72,4.91-5.05s5.13.55,7.66,1.17a36.75,36.75,0,0,0,23.14-2L145.75,61.2c-2.56-.5-5.53-1.34-6.45-3.77a105.65,105.65,0,0,0,27.11,5.65m-57.62-50.5c.09.59-.43,1.09-.91,1.46A28.33,28.33,0,0,1,92.1,19.67,19.76,19.76,0,0,1,108.79,12.58Zm.15,2.54a2.09,2.09,0,0,1-.76,1.53v.06l-1-.22A1.66,1.66,0,0,1,108.94,15.12Zm-30.65-.41a139.6,139.6,0,0,1,20-2c-.6,1.49-2.27,2.19-3.73,2.85s-3.07,1.7-3.19,3.3c0,.67-.69,1.12-1.27,1.46-1.16.69-2.48,1.42-3.8,1.12a5.47,5.47,0,0,1-1.84-1l-7.15-5C77.25,15,77.83,14.79,78.29,14.71ZM54.75,41.57a15.45,15.45,0,0,1,6-13.93c1.11,1.16,1,3,.38,4.53S59.49,35,59,36.47a7.37,7.37,0,0,0,1.1,6.74c.49.64,1.47,1.21,2,.62a9.29,9.29,0,0,1-.53-10.53c1,1,1.2,2.55,1.74,3.87s1.77,2.64,3.16,2.33c-2.26-3.5-4-7.45-4.12-11.61s1.82-8.53,5.45-10.55l-2-3.37,1.69,0a5.08,5.08,0,0,1,2.69.54,1.88,1.88,0,0,1,.86,2,3.13,3.13,0,0,1,3.08-1.18,8.75,8.75,0,0,1,3.48,1.71l6.52,4.54a2.05,2.05,0,0,1,1,1.2,2,2,0,0,1-.13.91L82.36,32.6c-2.17-2.2-6.12-1.76-8.39.35s-3.07,5.41-3,8.5a4.24,4.24,0,0,0-4.57,0,7.22,7.22,0,0,0-2.87,3.78,11.3,11.3,0,0,0,.35,8.48A15.46,15.46,0,0,1,54.75,41.57Zm51.05,21.55a3.77,3.77,0,0,1,2,1.84,2.16,2.16,0,0,1-.51,2.51A2.57,2.57,0,0,1,104,66.9c-1.35-1.38-1.63-3.45-1.84-5.37a2.58,2.58,0,0,1,0-.78c.22-.94,1.41-1.22,2.37-1.32a4.51,4.51,0,0,1,3.1.45c.87.63,1,2.27,0,2.61a4.72,4.72,0,0,0-5.23-.21A12.38,12.38,0,0,1,105.81,63.12Zm-3.57-5.94a1.79,1.79,0,0,1,.93-1c1.1-.7,2.36-1.43,3.63-1.13s2,2.28.85,2.92l-2.78.5a3.59,3.59,0,0,1-1.71,0A1.23,1.23,0,0,1,102.24,57.18Zm6-4.91a5.36,5.36,0,0,1-1.59.9l-4.8,2.06c-3,1.29-6.28,2.6-9.47,1.85a5.25,5.25,0,0,1-3.68-2.73,3.25,3.25,0,0,1,1.21-4.13c2.53-1.29,4.18-3.79,6.12-5.87s4.71-3.91,7.46-3.22c2.54.64,4.1,3.18,5.05,5.62C109.28,48.58,109.68,50.94,108.24,52.27ZM91.44,64.55c-.17-1-.27-2.22.57-2.75a15.31,15.31,0,0,1-2.7-4.71c2.22,0,5.26,2,6.62,3.73.51.65,1.62.22,2.05-.48s.52-1.59,1-2.26,1.68-1,2-.22a1.39,1.39,0,0,1,.1.7,4.4,4.4,0,0,1-2.37,3.62c-2.07,1-4.57.29-6.76-.49a5.18,5.18,0,0,0,7.21,1.68c.55-.39,1.27-.91,1.81-.51a8,8,0,0,1-3.12,9.37c-1.67,1-3.74,1.45-5.07,2.89A.71.71,0,0,1,92,75,43.22,43.22,0,0,0,91.44,64.55Zm2.71-19.74a34.52,34.52,0,0,1-6.28,5.48c-1.15-1-.58-2.73-.38-4.81C86,42.29,85,38.83,86.7,35.73a6.27,6.27,0,0,1,8.25-2.3,4.27,4.27,0,0,1,1.55,1.44,4.75,4.75,0,0,1,.6,2.32A11.65,11.65,0,0,1,94.15,44.81Zm-8,1.34a5.86,5.86,0,0,1,.14,3.31,2.07,2.07,0,0,1-2.62,1.39L77.91,48a10.74,10.74,0,0,1-4-2.77,7.76,7.76,0,0,1-1.39-3.86,9.41,9.41,0,0,1,1-5.77,5.85,5.85,0,0,1,4.84-3,4.82,4.82,0,0,1,2.75.86c1.75,1.22,2.47,3.4,3.06,5.43Q85.28,42.5,86.17,46.16ZM76.24,83.37a3.23,3.23,0,0,1,.94-.55,8.47,8.47,0,0,1,3.47-.67,36.36,36.36,0,0,1-1.29,8.94A2.51,2.51,0,0,1,77,90.24c-.89-1-.62-3,.7-3.4A2.11,2.11,0,0,1,76.24,83.37Zm1.31-7.65a3.29,3.29,0,0,1-.07-2.25,4.07,4.07,0,0,0,.07-2.27l1-.2a17.25,17.25,0,0,1,.92,5.13C79,76.71,77.92,76.39,77.56,75.72Zm-1.69-.85a6.08,6.08,0,0,1-3.67-4.5,18.14,18.14,0,0,1,0-6,1.89,1.89,0,0,1,.23-.84c.56-.85,1.85-.29,2.82,0a4.51,4.51,0,0,0,3.85-.5A36.52,36.52,0,0,0,75.87,74.87Zm0-12.59c-2.21-.14-4.65-1.89-4.23-4.07.72-.58,1.81-.06,2.46.6s1.26,1.5,2.18,1.65c1.57.24,2.53-1.64,3-3.16.81-.1,1.41.84,1.39,1.67C80.59,61.13,78,62.42,75.85,62.28Zm-4.28-5.59a9.27,9.27,0,0,1-6.83-5.5,7.45,7.45,0,0,1,2-8.31c1.24-1,3.15-.42,4.31.64s1.91,2.54,3,3.68c2.35,2.44,6,3.07,9,4.59.83.41,1.73,1.09,1.67,2C84.69,55,83.21,55.44,82,55.65,78.56,56.27,75,57.37,71.57,56.68Zm-6.71,2.24,2.7.35a5.2,5.2,0,0,1,2.37.71,1.8,1.8,0,0,1,.72,2.17l-4,.23A2.26,2.26,0,0,1,64.87,58.93Zm-.43-4.62,5.89,3.6c-.1.46-.69.58-1.16.57a8.21,8.21,0,0,1-1.67-.19A4.7,4.7,0,0,1,65,57,2.5,2.5,0,0,1,64.44,54.31Zm-7.74,7.32c-1.76-3.45-2.23-7.78-.3-11.14A10.11,10.11,0,0,1,63.1,61.9a5.29,5.29,0,0,1-3.41-4.48c-1.34.51-.81,2.62.31,3.52s2.66,1.53,3,2.92l1.44,5.42C61.67,67,58.28,64.75,56.69,61.63Zm8.7,5.48c-1-.6-1.35-2.19-.44-2.89a3.86,3.86,0,0,1,2.31-.38c1.41,0,3.3-.41,3.79.9S70,67,68.73,67.32A4.4,4.4,0,0,1,65.39,67.11Zm1,1.83,2.53-.49a1.93,1.93,0,0,1,.81,0,1.36,1.36,0,0,1,.9,1.15,2.24,2.24,0,1,1-4.23-.62ZM62,88.74a4.2,4.2,0,0,0,.51.47c.83.85-.35,2.41-1.53,2.24A3.42,3.42,0,0,1,58.64,89a1.5,1.5,0,0,1-.14-.64,1.63,1.63,0,0,1,.77-1.05c4.65-3.6,3.65-3.3,8.87-6,.72-.38,1.71-.72,2.27-.12-3.61,4-2.12,3.65-7.08,5.7C62.53,87.25,61.56,88,62,88.74Zm11.12-2.41c-.27.53-1,.66-1.55.72-1.3.15-4.55,1.93-5.33,2.31-2,1,2-1.55,0-.58a2.86,2.86,0,0,1-1.65.42c-.57-.09-1.08-.71-.85-1.23l2-1.46,4.28-3.43a2.33,2.33,0,0,1,.95-.54c1.27-.27,2,1.42,2.13,2.7A1.87,1.87,0,0,1,73.16,86.32Zm-4.78-8.59c-.73-.62-1.46-1.56-1.12-2.45A3.53,3.53,0,0,1,73.75,75c-.12,1-1.67,1.12-2.59.62s-1.87-1.31-2.89-1a4.91,4.91,0,0,0,6.61,1.76.78.78,0,0,1,1,.43,2.26,2.26,0,0,1,0,1.26l-.33,2.19a1.11,1.11,0,0,1-.36.8,1.09,1.09,0,0,1-.92,0A17.42,17.42,0,0,1,68.39,77.73ZM75.7,89.88c1,1,1,1.58,1.93,2.63a2.42,2.42,0,0,1,.65,1A2.14,2.14,0,0,1,78,94.8a10.49,10.49,0,0,1-6,5.59c-1.44.52-3.43.49-4.07-.9C71.87,97.77,75.63,94.16,75.7,89.88Zm-9,11.28c3.7,2.07,8.6,0,11.1-3.42s3.19-7.8,3.8-12l1.06-7.21A36.8,36.8,0,0,1,79.21,70a7.31,7.31,0,0,1-.33-2.49c.29-3.42,4.67-5.55,4.58-9l-1.06.67c-1-.14-1-1.79-.13-2.22a2,2,0,0,1,2.46,1,5.92,5.92,0,0,1,.44,2.89l-.34,18.94c-.11,5.7-.27,11.64-2.88,16.72s-8.45,9-13.95,7.43a2.81,2.81,0,0,1-1.72-1.07A1.21,1.21,0,0,1,66.74,101.16Zm18.2-4.29c-2.15,3.58-4.62,7.42-8.58,8.75-3.28,1.1-7,.23-10.2,1.49-.52-.92.4-2.08,1.43-2.31a8.73,8.73,0,0,1,3.13.31c5.23.84,10-3.45,12.37-8.19,5.64-11.28,2.33-24.76,3.34-37.34.06-.78.45-1.83,1.23-1.68a25.62,25.62,0,0,1,2.16,19.26,22.75,22.75,0,0,0-1,4c-.16,1.66.21,3.32.19,5C89,90,86.93,93.55,84.94,96.86ZM98.28,85.58A16.59,16.59,0,0,1,87.6,95.47c1.6-3.47,3.23-7.13,2.88-10.93a3.09,3.09,0,0,1,.07-1.48.89.89,0,0,1,1.21-.5,9.65,9.65,0,0,0,6.09,1.66C98.42,84.18,98.47,85,98.28,85.58Zm-6.76-4.47a1.75,1.75,0,0,1-.75-.67c-.29-.57.05-1.26.39-1.82a6.84,6.84,0,0,1,2.17-2.5,2.36,2.36,0,0,1,3,.36c1,1.35,2.13,2.8,3.77,3.16,1.35.3,2.89-.18,4,.56A11.75,11.75,0,0,1,91.51,81.11Zm10.21-2.27c-2.08-.25-3.37-2.32-5.1-3.5a1.35,1.35,0,0,1,.16-1.21c1.28-.6,2.64.58,3.59,1.64s2.36,2.19,3.6,1.52a7.11,7.11,0,0,0-2.15-1.76A3.79,3.79,0,0,1,100,73.45c-.22-.91.44-2.05,1.37-2l3.71,2.86A3.43,3.43,0,0,1,101.73,78.83Zm2.65-6.64a4.36,4.36,0,0,1-2.14-1.93,2.07,2.07,0,0,1,.64-2.61c.88.8,2.14,1,3.09,1.78s1.33,2.45.26,3A2,2,0,0,1,104.37,72.2Zm19.09-2.59c.76.57.61,1.74.32,2.64a22,22,0,0,1-3.64,6.89c-.67.85-1.89,1.71-2.71,1a7.71,7.71,0,0,1-10.08,2.55c-1-.61-2-1.9-1.39-2.94.38-.62,1.27-1.24.84-1.82-.66-.89-.33-2.14,0-3.19L109.08,68A12.91,12.91,0,0,0,123.46,69.6ZM149.8,31.5a4,4,0,0,1-1,2.21,4,4,0,0,1-2.74.67l-12.76-.06a9.45,9.45,0,0,0-.6-8,36.15,36.15,0,0,1-.9,7.06,4.93,4.93,0,0,1-1.31,2.71A1.88,1.88,0,0,1,127.8,36c-1.32-2,3.28-4.83,1.5-6.44A5.74,5.74,0,0,1,125,33.33a14,14,0,0,1-.46,16.2,14,14,0,0,1-15.63,4.28,8.92,8.92,0,0,0-10.7-13.35A6.65,6.65,0,0,0,87,33.61c-.56.67-1.26,1.55-2.09,1.28s-.89-1.42-.77-2.29c.44-3.3,1-6.9,3.5-9.13a13.62,13.62,0,0,1,5.92-2.63q7.23-1.86,14.61-3.07c4.09-.67,9.4-.56,11,3.26a6.9,6.9,0,0,0-7.11-5.25c-.9.08-1.27-1.31-.68-2a3.48,3.48,0,0,1,2.48-.86l5-.36c0,.53.09,1.06.14,1.59,4.42-2.31,9.27-4,14.26-4s10.13,2.11,13,6.15a11.11,11.11,0,0,0-6.11-.23c1.36,1.4,3.64,1.09,5.55,1.48s3.76,2.87,2.24,4.1C150.93,23.63,150.53,28,149.8,31.5Zm-.36-11.33,1.26-.64.07.16,1.7,1.7a1.28,1.28,0,0,1-1.8.4A3.54,3.54,0,0,1,149.44,20.17ZM159,33.32c-.36-.24.16-.74.58-.83l2-.43,3.84-.83,2.27-.5A12.68,12.68,0,0,1,159,33.32Z"/><path class="cls-3" d="M118.26,78.63h0"/><path class="cls-3" d="M118.26,78.63h0"/><path class="cls-2" d="M108,75.43a5.53,5.53,0,0,0,7.8-1.19c.4-.61,1.23-1.39,1.67-.8A6.79,6.79,0,0,1,111,78C109.55,78,107.78,76.91,108,75.43Z"/><path class="cls-3" d="M106,102.23l.13.06"/><path class="cls-2" d="M114.53,99.61,106.05,102c.32.07.42-.49.16-.67a1.08,1.08,0,0,0-.93,0l-16.34,5.36c1.41-1.69,3.61-2.45,5.71-3.11q8.25-2.61,16.63-4.74C112.46,98.59,114.06,98.49,114.53,99.61Z"/></g><path class="cls-2" d="M108.29,94.48,105.61,96l-1.29-.41-9.18-2.9-1-.33s1,.19,1.15-.38l.51.1,11.43,2.19Z"/><path class="cls-2" d="M205.12,53.78a29.15,29.15,0,0,1-2.6,7.42,39.15,39.15,0,0,1-3.09,5.14q-.45.63-.93,1.23l-.14.18.11-.19q.38-.67.74-1.36c.31-.59.61-1.19.9-1.79.57-1.18,1.1-2.38,1.56-3.6.2-.49.38-1,.55-1.5l0-.07q.42-1.21.75-2.44v0c.2-.76.37-1.52.5-2.28.06-.31.11-.63.15-.94a19.47,19.47,0,0,0,.14-3.68,11.75,11.75,0,0,0-.78-3.49,9.73,9.73,0,0,0-1.48-2.57c-.11-.15-.23-.29-.35-.43l-.32-.33a12,12,0,0,0-2.45-1.91,21.47,21.47,0,0,0-6.91-2.52,49,49,0,0,0-7.52-.89,25.44,25.44,0,0,0-3.75.08,32.29,32.29,0,0,0-3.74.69,31,31,0,0,1-4.47.63h0c-1.09.08-2.17.1-3.26.07a45.76,45.76,0,0,0,6.91-1.42h0l.58-.18a31.53,31.53,0,0,1,3.79-1,24.16,24.16,0,0,1,4-.33,43.14,43.14,0,0,1,7.84.6q1.19.22,2.37.53c.71.19,1.41.41,2.1.66a19,19,0,0,1,3.08,1.46,13.93,13.93,0,0,1,3.18,2.64l.11.13a10.81,10.81,0,0,1,.7.92,10.5,10.5,0,0,1,1.32,2.54A15.16,15.16,0,0,1,205.12,53.78Z"/><path class="cls-4" d="M60,105c-3.25-1.39-9.73-6.43-11.28-9.84S42.87,80.81,32.15,77.85,3.5,79.94.78,91.08c-3.56,14.56,5.55,23.37,17.88,26.74,13.15,3.59,26.64-7.27,29.35-9.07C51.38,106.52,60,105,60,105Z"/><path class="cls-5" d="M11.26,86.77a1.25,1.25,0,0,1-1-2c.18-.22,4.59-5.37,13.63-4.8a1.25,1.25,0,0,1-.16,2.49c-7.79-.49-11.52,3.87-11.55,3.91A1.24,1.24,0,0,1,11.26,86.77Z"/><path class="cls-5" d="M27.51,80.66h-.06l-.17,0-.24,0a1.25,1.25,0,0,0-1.25,1.21,1.3,1.3,0,0,0,1.09,1.28h.06l.17,0,.24,0a1.25,1.25,0,0,0,1.25-1.21A1.3,1.3,0,0,0,27.51,80.66Z"/></g></g></svg>