<svg xmlns="http://www.w3.org/2000/svg" viewBox="0 0 119.53 337.5"><defs><style>.cls-1{fill:none;stroke:#fff;stroke-miterlimit:10;stroke-width:4px;}.cls-2{fill:#fff;}</style></defs><title>アセット 2</title><g id="レイヤー_2" data-name="レイヤー 2"><g id="レイヤー_1-2" data-name="レイヤー 1"><path class="cls-1" d="M50,176.49v1.7a4.2,4.2,0,0,0,4.2,4.2h5.77a4.2,4.2,0,0,0,4.2-4.2v-1.7a4.17,4.17,0,0,0-.07-.66H50A4.17,4.17,0,0,0,50,176.49Z"/><path class="cls-1" d="M69.65,144.24v27.41a4.19,4.19,0,0,1-4.2,4.19H48.67a4.19,4.19,0,0,1-4.2-4.19V144.24a4.15,4.15,0,0,1,.63-2.2A121.47,121.47,0,0,1,69,142,4.15,4.15,0,0,1,69.65,144.24Z"/><path class="cls-1" d="M74.09,201.58c0-11.59-2.71-19.06-16.78-18.88-13.64.17-16.78,7.3-16.78,18.88,0,.62-22.3,17.48-22.3,43.17,0,20.5,17.73,37.09,38.17,38.54a41.26,41.26,0,0,0,44.27-41.15C100.66,214.17,74.09,202.2,74.09,201.58Z"/><rect class="cls-2" x="54.33" width="3.67" height="131.65"/><path class="cls-1" d="M92.58,142.31a4.33,4.33,0,0,1-4.19,3,4.48,4.48,0,0,1-1.11-.14A123.44,123.44,0,0,0,69,142c-.73-1.2-23.18-1.2-23.92,0a123.58,123.58,0,0,0-18.27,3.18,4.37,4.37,0,0,1-5.3-2.91,4,4,0,0,1-.16-1.1,4.35,4.35,0,0,1,3.4-4.12,131.42,131.42,0,0,1,64.58,0A4.25,4.25,0,0,1,92.58,142.31Z"/><path class="cls-2" d="M58,315.23V337.5h3.58V315.23c-.6,0-1.18.09-1.79.09S58.57,315.25,58,315.23Z"/><path class="cls-2" d="M92.2,329.29l3.1-1.79L84.17,308.22c-1,.64-2,1.25-3.09,1.81Z"/><path class="cls-2" d="M117.74,305.06l1.79-3.1-19.25-11.12c-.56,1.06-1.17,2.08-1.81,3.08Z"/><path class="cls-2" d="M0,302l1.79,3.1,19.27-11.13c-.64-1-1.25-2-1.81-3.08Z"/><path class="cls-2" d="M24.23,327.5l3.1,1.79L38.44,310c-1.06-.56-2.08-1.17-3.09-1.81Z"/></g></g></svg>